<?xml version="1.0" encoding="utf-8"?>
<!-- Generator: Adobe Illustrator 18.0.0, SVG Export Plug-In . SVG Version: 6.00 Build 0)  -->
<!DOCTYPE svg PUBLIC "-//W3C//DTD SVG 1.1//EN" "http://www.w3.org/Graphics/SVG/1.1/DTD/svg11.dtd">
<svg version="1.1" id="レイヤー_1" xmlns="http://www.w3.org/2000/svg" xmlns:xlink="http://www.w3.org/1999/xlink" x="0px"
	 y="0px" viewBox="0 0 841.9 595.3" enable-background="new 0 0 841.9 595.3" xml:space="preserve">
<rect x="11" y="145.3" fill="#FFFFFF" width="819" height="303"/>
<g>
	<g>
		<path fill="#231815" d="M270.9,272.7c-6.3,0-11.2,2.4-14.7,7.1c-3.5,4.8-5.2,11.4-5.2,19.9c0,17.7,6.6,26.5,19.9,26.5
			c5.6,0,12.3-1.4,20.2-4.2v14.1c-6.5,2.7-13.8,4.1-21.8,4.1c-11.5,0-20.4-3.5-26.5-10.5s-9.2-17.1-9.2-30.2
			c0-8.3,1.5-15.5,4.5-21.7c3-6.2,7.3-11,12.9-14.3c5.6-3.3,12.2-5,19.8-5c7.7,0,15.5,1.9,23.2,5.6l-5.4,13.7c-3-1.4-6-2.6-9-3.7
			C276.8,273.2,273.8,272.7,270.9,272.7z"/>
		<path fill="#231815" d="M308,339.2v-79.4h16.8v65.5H357v13.9H308z"/>
		<path fill="#231815" d="M370.8,339.2v-79.4h16.8v79.4H370.8z"/>
		<path fill="#231815" d="M453.3,339.2h-45.7v-79.4h45.7v13.8h-28.9V291h26.9v13.8h-26.9v20.5h28.9V339.2z"/>
		<path fill="#231815" d="M540.3,339.2h-21.4l-34.5-60h-0.5c0.7,10.6,1,18.2,1,22.7v37.3h-15v-79.4h21.2l34.5,59.4h0.4
			c-0.5-10.3-0.8-17.6-0.8-21.9v-37.6h15.1V339.2z"/>
		<path fill="#231815" d="M590.9,339.2h-16.8v-65.4h-21.5v-14h59.9v14h-21.6L590.9,339.2L590.9,339.2z"/>
	</g>
	<path fill="#231815" d="M5.9,138.3V457h830V138.3H5.9z M821.5,442.5H20.3V152.7h801.2V442.5z"/>
</g>
</svg>
