<?xml version="1.0" encoding="utf-8"?>
<!-- Generator: Adobe Illustrator 18.0.0, SVG Export Plug-In . SVG Version: 6.00 Build 0)  -->
<!DOCTYPE svg PUBLIC "-//W3C//DTD SVG 1.1//EN" "http://www.w3.org/Graphics/SVG/1.1/DTD/svg11.dtd">
<svg version="1.1" id="レイヤー_1" xmlns="http://www.w3.org/2000/svg" xmlns:xlink="http://www.w3.org/1999/xlink" x="0px"
	 y="0px" viewBox="0 0 394.8 25.4" enable-background="new 0 0 394.8 25.4" xml:space="preserve">
<g>
	<path d="M17.9,7.9h0.7c0.3-0.4,0.6-0.7,0.9-1C20.1,7.2,20.5,7.6,21,8c0,0.1,0.1,0.1,0.1,0.1c0,0.1-0.1,0.1-0.2,0.1h-2.9
		c0,0.6,0,1.2,0,2c0,0.1-0.1,0.2-0.2,0.2c-0.3,0.1-0.6,0.1-0.8,0.1c-0.1,0-0.2-0.1-0.2-0.2v-0.2h-3.9v1.4h3.8c0.3-0.3,0.5-0.6,0.8-1
		c0.5,0.4,1,0.8,1.4,1.2c0,0,0.1,0.1,0.1,0.1c0,0.1-0.1,0.1-0.2,0.1h-5.9v1.5h5.2c0.3-0.3,0.6-0.7,0.9-1.2c0.5,0.4,1.1,0.9,1.6,1.3
		c0,0.1,0.1,0.1,0.1,0.1c0,0.1-0.1,0.1-0.2,0.1H7.1c-1.1,0-2,0.1-2.6,0.1l-0.2-0.8c0.5,0.1,0.9,0.1,1.4,0.2c0.3,0,0.8,0,1.4,0h4.5
		v-1.5h-4c-0.8,0-1.3,0-1.7,0.1l-0.1-0.7c0.5,0.1,1.1,0.2,1.8,0.2h4v-1.4H7.8c-0.6,0-1.1,0-1.6,0.1L6,9.7c0.5,0.1,1.1,0.1,1.8,0.1
		h3.7V8.3H6.2c-0.9,0-1.6,0-2.1,0.1L4,7.7c0.4,0.1,0.8,0.1,1.2,0.2c0.4,0,0.8,0,1.2,0h5.3V6.4H8.1c-0.7,0-1.2,0-1.6,0.1L6.4,5.8
		C6.9,5.9,7.5,6,8.1,6h3.5c0-0.5,0-1.1-0.1-1.6c0.8,0.1,1.3,0.1,1.6,0.2c0.2,0,0.3,0.1,0.3,0.2c0,0.1-0.1,0.1-0.2,0.2
		C13.2,5,13,5,12.8,5.1V6h3.8c0.2-0.3,0.5-0.5,0.7-0.7c0.3,0.2,0.7,0.5,1,0.7c0.1,0.1,0.2,0.2,0.2,0.2c0,0.1-0.1,0.1-0.2,0.2
		c-0.1,0-0.2,0.1-0.4,0.2v0.6V7.9z M6.9,14.7c0.5,0.2,1.1,0.5,1.6,0.8h7.9c0.2-0.3,0.5-0.6,0.7-0.8c0.4,0.3,0.7,0.5,1.1,0.8
		c0.1,0.1,0.1,0.2,0.1,0.2c0,0.1-0.1,0.1-0.2,0.2c0,0-0.2,0.1-0.4,0.2c0,0.7,0,1.1,0,1.5c0,1,0,2,0.1,3.1c0,0.2-0.1,0.2-0.2,0.3
		c-0.2,0-0.5,0.1-0.8,0.1c-0.1,0-0.2,0-0.2-0.1c0,0,0-0.1,0-0.1v-0.7H8.2v0.6c0,0.1,0,0.2-0.1,0.2c-0.1,0.1-0.4,0.1-0.9,0.1
		c-0.2,0-0.3-0.1-0.3-0.2c0,0,0,0,0-0.1C7,19.5,7,18.4,7,17.3C7,16.2,7,15.3,6.9,14.7z M16.5,17.5v-1.6H8.2v1.6H16.5z M16.5,17.9
		H8.2v1.8h8.3V17.9z M16.7,7.9V6.4h-3.9v1.5H16.7z M16.7,8.3h-3.9v1.6h3.9V8.3z"/>
	<path d="M27.5,12.5l-0.2-0.7c0.5,0.1,1,0.1,1.4,0.1h1.2c0.2-0.3,0.4-0.5,0.7-0.7c0.4,0.3,0.8,0.5,1.1,0.8c0.1,0.1,0.1,0.1,0.1,0.2
		c0,0.1-0.1,0.1-0.2,0.2c-0.2,0.2-0.4,0.3-0.4,0.3v4.4c0.2,0.4,0.4,0.8,0.6,1c0.4,0.4,1.2,0.7,2.3,0.9c0.7,0.1,1.8,0.1,3.1,0.1
		c1.8,0,4.2-0.1,7.1-0.3V19c-0.4,0.2-0.7,0.4-0.8,0.6c-0.1,0.1-0.1,0.4-0.3,0.7c-1.4,0-3.2,0-5.6,0c-1.1,0-2,0-2.7-0.1
		s-1.2-0.2-1.6-0.3c-1-0.4-1.7-1-2.2-1.7c-0.1-0.2-0.3-0.6-0.5-1.1c-0.4,0.7-1.1,1.5-2,2.6c0,0.2,0,0.3,0,0.4c0,0.3-0.1,0.4-0.2,0.4
		c-0.1,0-0.2-0.1-0.3-0.2c-0.1-0.1-0.2-0.4-0.4-0.9c-0.1-0.2-0.2-0.4-0.4-0.7c1.1-0.5,1.9-1,2.6-1.5v-4.8h-1.3
		C28.3,12.4,27.9,12.4,27.5,12.5z M27.8,5.1L28,4.9c0.7,0.4,1.5,1,2.5,1.8c0.4,0.3,0.6,0.6,0.6,0.8c0,0.1,0,0.2,0,0.2
		c0,0.3-0.1,0.7-0.3,1c-0.1,0.2-0.3,0.3-0.4,0.3S30.2,9,30.1,8.8C30,8.7,29.9,8.4,29.7,8c-0.3-0.7-0.7-1.4-1.3-2.2
		C28.2,5.5,28,5.3,27.8,5.1z M36.3,7.4h2c0.1-0.3,0.3-0.8,0.6-1.4c0.2-0.6,0.4-1.1,0.5-1.5c0.3,0.1,0.6,0.2,0.9,0.2
		c0.5,0.2,0.8,0.2,0.9,0.2c0.2,0.1,0.3,0.1,0.3,0.3c0,0.1,0,0.1-0.1,0.1c-0.1,0.1-0.2,0.1-0.4,0.1c-0.1,0-0.2,0-0.4,0.1
		c-0.5,0.6-1.1,1.3-1.9,1.9h2.6c0.3-0.4,0.6-0.8,0.9-1.2c0.5,0.4,1.1,0.8,1.6,1.3c0.1,0.1,0.2,0.2,0.2,0.2c0,0.1-0.1,0.1-0.2,0.1
		h-5.3c-0.5,0.7-1.1,1.3-1.6,1.8h3.4c0.2-0.2,0.5-0.5,0.8-0.8c0.4,0.3,0.7,0.6,1,0.9c0.1,0.1,0.2,0.2,0.2,0.2c0,0,0,0.1-0.1,0.1
		c-0.2,0.1-0.3,0.2-0.4,0.3v1.4v2.2c0,0.7,0,2,0.1,3.9c0,0.1-0.1,0.2-0.1,0.3c-0.2,0.1-0.4,0.1-0.8,0.1c-0.1,0-0.2,0-0.3-0.1
		c-0.1,0-0.1-0.1-0.1-0.2v-0.4h-5.8V18c0,0.2-0.1,0.2-0.2,0.3c-0.1,0-0.3,0-0.8,0.1c0,0-0.1,0-0.1,0c-0.1,0-0.1-0.1-0.1-0.2
		c0,0,0-0.1,0-0.1c0-1.7,0-2.9,0-3.5c0-2.7,0-4.6-0.1-5.7c0.5,0.2,1,0.5,1.5,0.8h1.5c0.2-0.6,0.4-1.2,0.6-1.8h-3.8
		c-0.6,0-1.1,0.1-1.4,0.1l-0.2-0.6c0.3,0,0.6,0.1,1,0.1l0.6,0h2.6c-0.1-0.1-0.2-0.2-0.2-0.5c-0.2-0.6-0.3-1-0.5-1.3s-0.4-0.7-0.6-1
		l0.2-0.1c0.7,0.4,1.2,0.8,1.6,1.2c0.3,0.2,0.4,0.4,0.4,0.6c0,0.1,0,0.1,0,0.2C36.8,6.8,36.6,7.1,36.3,7.4z M34.8,12h5.8v-2h-5.8V12
		z M40.6,12.4h-5.8v2.1h5.8V12.4z M40.6,14.9h-5.8v2.2h5.8V14.9z"/>
	<path d="M50.8,17.6l-0.1-0.2c0.7-0.5,1.4-1.2,2.1-1.9c1.2-1.2,2.1-2.6,2.8-4c0.2-0.4,0.3-0.7,0.3-0.9c0-0.2-0.1-0.4-0.2-0.5
		c-0.1-0.2-0.4-0.3-0.7-0.5c0.2,0,0.3-0.1,0.4-0.1c0.2,0,0.5,0.1,0.8,0.2c0.4,0.2,0.8,0.5,1.2,0.8c0.2,0.2,0.4,0.4,0.4,0.6
		c0,0.1,0,0.2-0.1,0.3c0,0-0.1,0.1-0.2,0.2c-0.1,0.1-0.3,0.3-0.6,0.7c-0.8,1-1.3,1.7-1.6,2c-0.9,0.9-1.9,1.8-2.9,2.5
		C51.7,17.1,51.2,17.4,50.8,17.6z M60.1,9.7l0.2-0.2c0.9,0.6,1.9,1.3,2.8,2.1c0.9,0.8,1.6,1.6,2.1,2.4c0.3,0.4,0.4,0.8,0.5,1.1
		c0,0.2,0.1,0.3,0.1,0.5c0,0.4-0.1,0.7-0.2,1c-0.1,0.2-0.3,0.3-0.4,0.3c-0.1,0-0.3-0.1-0.4-0.2c-0.1-0.1-0.1-0.3-0.2-0.6
		C63.6,13.6,62.1,11.5,60.1,9.7z M64.1,5.9c0.5,0,1,0.2,1.3,0.6c0.3,0.4,0.5,0.8,0.5,1.2c0,0.5-0.2,1-0.6,1.4
		c-0.4,0.3-0.8,0.5-1.2,0.5c-0.5,0-1-0.2-1.4-0.6c-0.3-0.4-0.5-0.8-0.5-1.2c0-0.5,0.2-1,0.6-1.3C63.2,6,63.6,5.9,64.1,5.9z M64,6.5
		c-0.4,0-0.7,0.1-0.9,0.4c-0.2,0.2-0.3,0.5-0.3,0.8c0,0.4,0.1,0.7,0.4,0.9C63.5,8.9,63.8,9,64.1,9c0.4,0,0.7-0.1,0.9-0.4
		c0.2-0.2,0.3-0.5,0.3-0.9c0-0.4-0.1-0.7-0.4-0.9C64.7,6.6,64.4,6.5,64,6.5z"/>
	<path d="M78,20.1l-0.2-0.2c1.3-1.1,2.4-2.1,3.2-3.1c1.2-1.4,2.3-3,3.4-4.9c0.7-1.3,1.2-2.4,1.4-3.2c0.1-0.2,0.1-0.4,0.1-0.5
		c0-0.2-0.1-0.2-0.4-0.2c-0.1,0-0.6,0.1-1.5,0.2c-2.3,0.4-4,0.9-5.2,1.4c-0.3,0.1-0.5,0.2-0.7,0.2c-0.2,0-0.5-0.2-0.9-0.5
		c-0.3-0.3-0.6-0.7-0.7-1c-0.1-0.2-0.1-0.4-0.1-0.5c0-0.1,0-0.2,0.1-0.4C76.8,7.6,77,7.8,77.2,8c0.3,0.2,0.6,0.3,1.1,0.3
		c0.6,0,2.3-0.2,5.1-0.7c1-0.2,1.6-0.3,1.7-0.4c0.1,0,0.2-0.1,0.3-0.2c0.2-0.1,0.3-0.1,0.4-0.1c0.3,0,0.6,0.2,1.1,0.7
		c0.5,0.4,0.7,0.8,0.7,1c0,0.1,0,0.1,0,0.2c0,0.1-0.1,0.2-0.2,0.3c-0.1,0.1-0.2,0.2-0.3,0.3c-0.1,0.1-0.2,0.3-0.4,0.7
		c-1.5,3-3.2,5.4-5.2,7.3C80.6,18.4,79.3,19.3,78,20.1z"/>
	<path d="M99.6,19l-0.2-0.3c0.4-0.3,0.9-0.6,1.4-1c0.9-0.7,1.6-1.4,2.1-1.9c1-1,1.9-2.2,2.7-3.4c-0.2,0-0.8,0.2-1.6,0.3
		c-0.8,0.2-1.4,0.4-1.9,0.5c-0.1,0.1-0.3,0.1-0.4,0.1c-0.3,0-0.6-0.2-1-0.6c-0.3-0.4-0.5-0.7-0.5-1c0-0.1,0-0.2,0.1-0.3
		c0.4,0.5,0.9,0.8,1.5,0.8c0.4,0,1.3-0.1,2.7-0.3c0.7-0.1,1.3-0.2,1.8-0.3c0-0.5,0-1.1,0-1.6c0-0.4-0.2-0.8-0.5-1
		c-0.2-0.2-0.5-0.3-0.8-0.4c0.1-0.1,0.2-0.1,0.3-0.1c0.1,0,0.2,0,0.3,0c0.5,0,1,0.1,1.5,0.3c0.4,0.1,0.5,0.4,0.5,0.6
		c0,0.1,0,0.2-0.1,0.4c-0.1,0.2-0.1,0.4-0.2,0.7c0,0.2-0.1,0.5-0.1,0.9c0.8-0.1,1.5-0.3,1.9-0.4c0.3-0.1,0.4-0.1,0.5-0.1
		c0.1,0,0.3,0.1,0.6,0.2c0.2,0.1,0.4,0.3,0.5,0.4c0.1,0.1,0.1,0.2,0.1,0.3c0,0.2-0.1,0.3-0.4,0.3c-0.1,0-0.3,0-0.8,0
		c-0.1,0-0.3,0-0.6,0c-0.8,0-1.4,0-2,0.1c0,0.2,0,0.4,0,0.5c0,0.7,0,1.9,0.1,3.6c0,0.4,0.1,1,0.1,1.5c0,0.3,0,0.5,0,0.7
		c0,0.5-0.1,1-0.4,1.5c-0.1,0.3-0.3,0.4-0.5,0.4c-0.2,0-0.3-0.1-0.4-0.4c-0.1-0.2-0.2-0.3-0.3-0.4c-0.1-0.1-0.4-0.3-1-0.7
		c-0.3-0.2-0.6-0.3-0.9-0.5c-0.1-0.1-0.2-0.1-0.3-0.2l0.1-0.2c0.3,0.1,0.8,0.2,1.3,0.3c0.6,0.1,1,0.2,1.4,0.3c0-0.7,0-1.3,0-1.8
		c0-0.4,0-0.9,0-1.5c0-0.7,0-1.3,0-1.6c0-0.1,0-0.4,0-0.7c-1,1.4-2.2,2.7-3.6,3.8C101.8,17.7,100.7,18.4,99.6,19z"/>
	<path d="M121.8,10.9c0.2,0.4,0.4,0.6,0.6,0.8c0.2,0.2,0.6,0.3,1,0.4c0.2,0,0.6,0,1.2,0l1.8,0l2.3,0c1.9,0,3,0,3.3,0
		c2.1,0,3.3,0,3.6,0.1c0.3,0.1,0.4,0.2,0.4,0.3c0,0.2-0.3,0.4-0.8,0.5c-0.4,0.1-1.2,0.1-2.5,0.2c-0.5,0-1.7,0-3.7,0
		c-2.5,0-4,0.1-4.5,0.1c-0.5,0-0.8,0.1-1,0.2c-0.1,0-0.2,0.1-0.3,0.1c-0.3,0-0.6-0.3-1-0.9s-0.5-1.1-0.5-1.5
		C121.7,11.1,121.7,11,121.8,10.9z"/>
	<path d="M148.8,13.3L149,13c1.2,0.6,2.2,1.2,3,1.8c1.2-1.1,2-2,2.5-2.5c1-1.1,1.7-1.9,2.1-2.5c0.1-0.1,0.1-0.2,0.1-0.2
		c0-0.1-0.1-0.1-0.3-0.1c-0.5,0-1.3,0.1-2.3,0.2c-2.6,0.4-4.5,0.8-5.7,1.1c-0.4,0.1-0.7,0.2-1.1,0.4c-0.2,0.1-0.4,0.1-0.5,0.1
		c-0.4,0-0.8-0.3-1.2-0.9c-0.4-0.6-0.6-1-0.6-1.4c0-0.2,0-0.3,0.1-0.4c0.2,0.4,0.5,0.7,0.9,0.9c0.2,0.1,0.4,0.2,0.6,0.2
		c0.1,0,0.3,0,0.5,0c0.4,0,1.1,0,1.9-0.1c0.9-0.1,2.5-0.3,5-0.6c1.1-0.1,1.7-0.2,2-0.3c0.1,0,0.3-0.1,0.4-0.2
		c0.1-0.1,0.3-0.1,0.4-0.1c0.2,0,0.3,0,0.5,0.1c0.4,0.3,0.8,0.7,1.3,1.2c0.2,0.3,0.3,0.5,0.3,0.6s-0.1,0.3-0.2,0.4
		c-0.1,0-0.2,0.1-0.4,0.2c-0.2,0.1-0.6,0.3-1,0.7c-0.2,0.1-0.6,0.5-1.3,1c-0.4,0.3-0.9,0.6-1.5,1.2c-0.8,0.6-1.4,1.1-1.9,1.4
		c0.5,0.5,0.9,0.8,1.1,1.1c0.3,0.4,0.4,0.8,0.4,1.2c0,0.4-0.1,0.6-0.2,0.9c-0.1,0.2-0.3,0.3-0.4,0.3c-0.2,0-0.3-0.1-0.4-0.3
		c-0.1-0.1-0.1-0.2-0.2-0.4C151.8,16.2,150.5,14.6,148.8,13.3z"/>
	<path d="M169.4,7.7l0.1-0.2c1.7,0.4,2.8,0.9,3.5,1.4c0.4,0.3,0.6,0.7,0.6,1.2c0,0.3,0,0.5-0.1,0.7s-0.2,0.3-0.4,0.3
		c-0.1,0-0.2,0-0.3-0.1c-0.1-0.1-0.2-0.3-0.5-0.6c-0.5-0.7-1.1-1.3-1.7-1.7C170.3,8.4,169.9,8.1,169.4,7.7z M182,8.4l0.3,0.2
		c-0.8,1.5-2,3.1-3.8,4.8c-0.8,0.8-1.6,1.5-2.3,2.1c-0.7,0.6-1.6,1.2-2.8,2.1c-0.2,0.1-0.4,0.3-0.7,0.5c-0.2,0.1-0.3,0.2-0.4,0.3
		c-0.1,0.1-0.2,0.2-0.2,0.3c-0.1,0.1-0.3,0.2-0.4,0.2c-0.2,0-0.5-0.2-0.8-0.5c-0.5-0.5-0.9-1-1.1-1.6c-0.1-0.2-0.1-0.4-0.1-0.6
		c0-0.1,0-0.2,0.1-0.4c0.3,0.4,0.5,0.6,0.6,0.8c0.3,0.3,0.5,0.4,0.7,0.4c0.3,0,0.9-0.3,1.8-0.8c1.1-0.6,1.9-1.2,2.5-1.6
		c1-0.7,2.1-1.6,3.3-2.6c0.9-0.8,1.7-1.6,2.4-2.3C181.3,9.3,181.6,8.9,182,8.4z"/>
	<path d="M191.4,19.2l-0.1-0.3c0.8-0.5,1.6-1,2.3-1.7c1.4-1.1,2.5-2.2,3.3-3.1c1.1-1.3,2.1-2.6,2.9-4c0.4-0.7,0.7-1.3,1-2
		c-0.3,0-0.8,0.1-1.4,0.2c-0.7,0.2-1.2,0.2-1.3,0.3L197,8.9c-0.5,0.1-0.8,0.2-1.1,0.3c-0.1,0-0.2,0.1-0.4,0.2
		c-0.1,0-0.2,0.1-0.3,0.1c-0.4,0-0.8-0.3-1.2-1c-0.2-0.4-0.4-0.8-0.4-1.1c0-0.1,0-0.2,0.1-0.4c0.3,0.5,0.5,0.8,0.7,0.9
		c0.2,0.2,0.6,0.2,0.9,0.2c0.4,0,1.1-0.1,2-0.2c1.3-0.2,2.3-0.4,2.9-0.5c0.2-0.1,0.4-0.1,0.6-0.3c0.2-0.1,0.3-0.2,0.4-0.2
		c0.2,0,0.5,0.2,0.9,0.6c0.3,0.3,0.5,0.5,0.5,0.7c0,0.1-0.1,0.2-0.2,0.3c-0.2,0.1-0.4,0.3-0.5,0.5c-0.1,0.1-0.3,0.4-0.5,0.8
		c-0.4,0.6-0.7,1.1-1,1.5c-0.1,0.2-0.5,0.6-1,1.3l-0.2,0.3c2.4,1.3,4,2.3,4.7,3c0.3,0.3,0.5,0.6,0.6,0.9c0.1,0.3,0.1,0.5,0.1,0.8
		c0,0.3,0,0.5-0.1,0.7c-0.1,0.2-0.2,0.2-0.3,0.2c-0.1,0-0.3-0.1-0.4-0.3c0-0.1-0.2-0.3-0.4-0.7c-0.6-0.9-1.3-1.9-2.3-2.8
		c-0.6-0.6-1.2-1.1-1.9-1.6c-0.7,0.9-1.5,1.7-2.1,2.3C195,17.3,193.2,18.5,191.4,19.2z"/>
	<path d="M216.2,10.4c0.6,0.1,1,0.2,1.1,0.3c0.1,0.1,0.2,0.1,0.2,0.2c0,0.1-0.2,0.3-0.6,0.4v3.6v1.7l0,2.2l0,1.6
		c0,0.2,0,0.2-0.1,0.3c-0.2,0.1-0.5,0.1-0.9,0.1c-0.1,0-0.1,0-0.2,0c-0.1,0-0.1-0.1-0.1-0.2c0-2.3,0-4.2,0.1-5.7v-3.6
		c-0.6,0.8-1.3,1.7-2.1,2.6l-0.2-0.2c0.8-1,1.6-2.6,2.5-4.7c0.8-2,1.2-3.5,1.3-4.5c0.5,0.1,1,0.3,1.7,0.5c0.3,0.1,0.5,0.2,0.5,0.3
		c0,0.1-0.1,0.2-0.3,0.3c-0.1,0-0.2,0.1-0.5,0.1c-0.3,0.8-0.6,1.6-0.9,2.2C217.2,8.7,216.7,9.5,216.2,10.4z M220.9,10.9
		c0,0.1,0,0.2,0,0.4c0,0.9-0.2,2-0.4,3.3c-0.5,2.5-1.5,4.5-2.9,6l-0.2-0.2c0.8-1.3,1.4-2.8,1.7-4.4c0.2-1.1,0.4-2.6,0.5-4.6
		c0.1-1,0.1-2,0.1-3.1c0-1,0-1.9,0-2.8c0.4,0.2,0.7,0.3,0.8,0.4c0.1,0.1,0.4,0.2,0.9,0.5h5.8c0.4-0.5,0.7-0.9,1.1-1.3
		c0.5,0.4,0.8,0.6,0.9,0.7c0.1,0.1,0.4,0.4,0.8,0.7c0.1,0.1,0.1,0.1,0.1,0.2c0,0.1-0.1,0.1-0.2,0.1H221l0,1.4l0,1.1l0,1.1h5.7
		c0.2-0.3,0.5-0.6,0.8-0.9c0.4,0.3,0.9,0.7,1.3,1c0.1,0.1,0.2,0.2,0.2,0.3c0,0,0,0.1-0.1,0.1c-0.1,0.1-0.3,0.1-0.6,0.2
		c-0.6,1.5-1.2,2.7-1.8,3.7c-0.3,0.5-0.7,1-1,1.4c1.3,1.2,3,2.1,4.9,2.6l0,0.3c-0.3,0-0.6,0.1-0.8,0.2c-0.2,0.1-0.3,0.3-0.4,0.4
		c-0.1,0.1-0.1,0.3-0.2,0.5c-0.6-0.3-1.2-0.6-1.7-1c-1-0.8-1.9-1.5-2.5-2.3c-1.7,1.7-3.7,2.9-5.8,3.4l-0.1-0.2
		c1.3-0.5,2.7-1.4,4.1-2.7c0.4-0.4,0.8-0.8,1.2-1.2c-0.6-0.9-1.2-1.8-1.6-2.9c-0.3-0.8-0.6-1.7-0.7-2.6H220.9z M222,10.9
		c0.2,0.8,0.5,1.6,0.9,2.3c0.5,0.9,1,1.6,1.6,2.3c1.1-1.5,1.9-3.1,2.3-4.7H222z"/>
	<path d="M241.6,7.5h1.1c0.3-0.4,0.6-0.8,1-1.1c0.5,0.4,0.9,0.8,1.3,1.3c0,0.1,0,0.1,0,0.1c0,0.1-0.1,0.1-0.2,0.1h-3.2v0.7l0.1,0.1
		c0.8,0.4,1.5,0.7,1.9,1c0.3,0.2,0.6,0.5,0.7,0.7c0.1,0.2,0.1,0.3,0.1,0.5c0,0.3-0.1,0.6-0.2,0.8c-0.1,0.1-0.2,0.2-0.3,0.2
		c-0.1,0-0.2-0.1-0.3-0.3c0-0.1-0.2-0.3-0.4-0.8c-0.2-0.3-0.5-0.8-0.9-1.2c-0.2-0.2-0.4-0.4-0.6-0.6v0.8c0,1.8,0,3.4,0.1,4.8
		c0,0.1-0.1,0.2-0.2,0.2c-0.2,0-0.4,0.1-0.8,0.1c-0.1,0-0.2,0-0.2-0.1c0,0,0-0.1,0-0.1l0-1.2l0-1.4l0-1.3v-0.2v-1
		c-0.4,0.6-0.7,1.1-1,1.4c-0.6,0.8-1.5,1.6-2.7,2.5l-0.2-0.3c1.6-1.5,2.7-3.3,3.5-5.2h-1.5c-0.7,0-1.2,0.1-1.5,0.1l-0.1-0.7
		c0.4,0.1,1,0.1,1.7,0.2h1.8V6.2V6.1c0-0.5,0-1-0.1-1.5c0.7,0.1,1.2,0.1,1.6,0.2c0.2,0,0.4,0.1,0.4,0.2c0,0.1-0.1,0.2-0.2,0.2
		c0,0-0.2,0.1-0.5,0.2v1.9V7.5z M239.7,15.8h0.3c-0.1,0.9-0.2,1.5-0.3,2c-0.2,0.7-0.5,1.3-0.9,1.8c-0.3,0.4-0.6,0.5-0.8,0.5
		c-0.1,0-0.3-0.1-0.4-0.2c-0.1-0.2-0.2-0.4-0.2-0.8c0-0.2,0.1-0.3,0.2-0.4c0.1-0.1,0.2-0.2,0.5-0.4c0.5-0.3,0.8-0.7,1.2-1.2
		C239.5,16.7,239.6,16.2,239.7,15.8z M241.6,15.6c0.9,0.1,1.5,0.2,1.7,0.2c0.2,0.1,0.3,0.1,0.3,0.2s-0.1,0.2-0.2,0.2
		c0,0-0.2,0.1-0.5,0.1v2.4c0,0.2,0,0.3,0.1,0.3c0.1,0.1,0.2,0.1,0.5,0.1c0.3,0,0.8,0,1.4,0c1.9,0,2.8,0,2.9,0c0.2,0,0.3-0.1,0.4-0.3
		c0.2-0.4,0.6-1.3,1-2.7l0.2,0l-0.1,2.2l0,0.2c0,0.1,0,0.2,0.1,0.2c0,0,0.1,0.1,0.3,0.1c0.2,0.1,0.3,0.2,0.3,0.4
		c0,0.3-0.3,0.6-0.8,0.6c-0.5,0.1-1.4,0.1-2.7,0.1h-1c-1.3,0-2.1,0-2.4,0c-0.4,0-0.7-0.1-0.9-0.2c-0.2-0.1-0.3-0.3-0.3-0.5
		c0-0.1,0-0.3,0-0.5c0-0.2,0-0.6,0-1v-1.2C241.7,16.3,241.7,15.9,241.6,15.6z M244.2,15.3c0.9,0.3,1.6,0.7,2.2,1.1
		c0.3,0.2,0.5,0.5,0.5,0.8s-0.1,0.6-0.2,0.8c-0.1,0.1-0.2,0.2-0.3,0.2c-0.1,0-0.2-0.1-0.3-0.3c-0.1-0.2-0.3-0.5-0.5-0.9
		c-0.3-0.4-0.6-0.8-0.8-1c-0.1-0.1-0.3-0.3-0.6-0.5L244.2,15.3z M245.2,4.7c0.5,0.3,1,0.6,1.5,1h3.9c0.2-0.3,0.5-0.6,0.8-0.8
		c0.4,0.3,0.7,0.6,1,0.8c0.1,0.1,0.2,0.2,0.2,0.3c0,0.1-0.2,0.3-0.6,0.5c0,0.5,0,1,0,1.2c0,3,0,5.3,0.1,6.9c0,0.1,0,0.2-0.1,0.2
		c-0.1,0.1-0.4,0.1-0.9,0.1c-0.1,0-0.2,0-0.2-0.1c0,0,0-0.1,0-0.2v-0.8h-4.3v0.8c0,0.1,0,0.2-0.1,0.2c-0.1,0.1-0.4,0.1-0.9,0.1
		c-0.1,0-0.1,0-0.2,0c-0.1,0-0.1-0.1-0.1-0.2c0-1.5,0.1-3,0.1-4.3C245.2,7.9,245.2,6,245.2,4.7z M250.8,8.2V6.1h-4.3v2.1H250.8z
		 M250.8,8.6h-4.3v2.2h4.3V8.6z M250.8,11.2h-4.3v2.3h4.3V11.2z M250.2,15.8c1,0.6,1.7,1.1,2.2,1.5c0.5,0.4,0.7,0.8,0.7,1.2
		c0,0.2,0,0.4-0.1,0.7c-0.2,0.4-0.3,0.6-0.6,0.6c-0.1,0-0.2-0.1-0.3-0.3c-0.2-0.6-0.5-1.1-0.8-1.6c-0.3-0.6-0.8-1.2-1.3-1.9
		L250.2,15.8z"/>
	<path d="M262.7,10.1c0.4,0,0.7,0.1,0.9,0.1c0.2,0,0.4,0.1,0.4,0.2c0,0.1-0.2,0.2-0.6,0.4v3.8c0,0.7,0,2.1,0,4.1c0,0.4,0,0.9,0,1.6
		c0,0.1,0,0.1,0,0.2c0,0.1-0.2,0.2-0.5,0.2c-0.2,0-0.4,0-0.5,0c-0.2,0-0.3-0.1-0.3-0.2c0,0,0-0.1,0-0.1c0-0.6,0-1.7,0-3.2l0-2.6
		v-3.7c-0.4,0.5-0.7,1-1.1,1.5c-0.3,0.4-0.7,0.8-1.2,1.2l-0.2-0.2c0.8-0.8,1.7-2.5,2.8-5.1c0.6-1.4,1-2.7,1.3-3.9
		c0.4,0.1,1,0.3,1.7,0.5c0.2,0.1,0.3,0.1,0.3,0.2c0,0.1-0.1,0.2-0.3,0.2c0,0-0.2,0-0.5,0.1C264.3,7.2,263.6,8.8,262.7,10.1z
		 M269.4,16.4v-0.2l0-1.7l0.1-4.4c-0.4,0.8-0.8,1.6-1.1,2.2c-0.8,1.3-1.7,2.6-2.9,3.8c-0.5,0.4-1,0.9-1.5,1.3l-0.2-0.3
		c0.7-0.7,1.4-1.5,1.9-2.3c0.7-1,1.4-2.2,2.1-3.5c0.3-0.7,0.7-1.5,1-2.3h-2.5c-0.6,0-1.2,0-1.7,0.1l-0.2-0.7c0.5,0.1,1.2,0.2,2,0.2
		h3.1V6.1c0-0.4,0-0.8-0.1-1.4c1,0.1,1.6,0.2,1.9,0.2c0.2,0,0.3,0.1,0.3,0.2c0,0.1-0.1,0.2-0.2,0.2c0,0-0.2,0.1-0.5,0.2v3.1h3
		c0.3-0.5,0.7-0.9,1-1.3c0.6,0.5,1.2,0.9,1.8,1.5c0.1,0.1,0.1,0.1,0.1,0.1s0,0.1-0.1,0.1c0,0-0.1,0-0.1,0h-5.7
		c0.2,0.4,0.3,0.7,0.3,0.8c0.4,0.9,1.2,2,2.2,3c0.9,1,1.8,1.7,2.6,2.2c0.3,0.2,0.7,0.3,1.1,0.5l-0.1,0.2c-0.6,0.1-1,0.5-1.4,1.1
		c-1.1-0.8-2.1-1.9-3-3.3c-0.9-1.4-1.6-2.7-2-4.1l0.1,5.2l0,1.7v0.1h1.1c0.3-0.4,0.6-0.8,0.9-1.2c0.5,0.4,1,0.9,1.4,1.3
		c0,0,0.1,0.1,0.1,0.1c0,0.1,0,0.1-0.1,0.1h-3.4l0,1c0,0.9,0,1.8,0,2.7c0,0.1-0.1,0.2-0.1,0.2c-0.2,0.1-0.5,0.1-0.8,0.1
		c-0.1,0-0.2,0-0.3,0c-0.1,0-0.1-0.1-0.1-0.2c0-1,0-1.9,0-2.8l0-1h-2c-0.4,0-0.9,0-1.3,0.1l-0.1-0.7c0.4,0.1,1,0.2,1.6,0.2H269.4z"
		/>
	<path d="M284.2,15.1h0.3c0,0.3,0,0.5,0,0.7c0,1-0.1,1.8-0.3,2.5c-0.1,0.3-0.2,0.6-0.4,0.7c-0.1,0.1-0.2,0.2-0.3,0.2
		c-0.2,0-0.3-0.2-0.3-0.5c0-0.3-0.1-0.5-0.1-0.6c0-0.1,0-0.2,0.1-0.3c0-0.1,0.1-0.2,0.3-0.3c0.3-0.3,0.5-0.7,0.6-1
		C284,16.1,284.1,15.7,284.2,15.1z M287.9,8.2h0.4c0.2-0.3,0.5-0.6,0.7-0.8c0.4,0.3,0.8,0.6,1.2,1c0.1,0.1,0.1,0.1,0.1,0.1
		c0,0.1-0.1,0.1-0.2,0.1h-2.2v2.2h0.4c0.2-0.3,0.5-0.6,0.7-0.9c0.4,0.3,0.8,0.7,1.2,1c0.1,0.1,0.1,0.1,0.1,0.1
		c0,0.1-0.1,0.1-0.2,0.1h-2.2v2.4h0.8c0.2-0.3,0.5-0.5,0.7-0.7c0.3,0.2,0.6,0.5,0.9,0.7c0.1,0.1,0.2,0.2,0.2,0.3
		c0,0.1-0.2,0.2-0.5,0.4c-0.1,2.5-0.3,4.2-0.7,5.2c-0.1,0.4-0.4,0.7-0.7,0.9c-0.2,0.1-0.4,0.2-0.7,0.3c-0.2,0-0.4,0.1-0.7,0.1
		c0-0.3-0.1-0.4-0.2-0.6c-0.1-0.2-0.4-0.4-0.7-0.5c-0.2-0.1-0.5-0.1-1-0.2l0-0.3c0.2,0,0.4,0,0.4,0c1,0.1,1.7,0.2,2,0.2
		c0.3,0,0.4-0.2,0.5-0.5c0.2-0.6,0.3-1.3,0.4-2.3c0-0.4,0.1-1.3,0.1-2.6h-3.7v0.4c0,0.1-0.1,0.2-0.2,0.2c-0.2,0-0.4,0.1-0.7,0.1
		c-0.1,0-0.1,0-0.2,0c-0.1,0-0.1-0.1-0.1-0.2c0-1.2,0.1-3.4,0.1-6.5c0-0.9,0-2-0.1-3.1c0.4,0.2,0.8,0.5,1.2,0.9h3
		c0.3-0.4,0.6-0.7,0.9-1c0.5,0.4,0.9,0.7,1.4,1.1c0.1,0.1,0.1,0.1,0.1,0.1c0,0,0,0,0,0.1c0,0-0.1,0.1-0.1,0.1h-2.7V8.2z M285,15.2
		l0.2-0.1c0.2,0.4,0.4,0.9,0.6,1.3c0.1,0.3,0.2,0.5,0.2,0.7c0,0.3-0.1,0.5-0.2,0.7c-0.2,0.3-0.4,0.4-0.5,0.4c-0.1,0-0.1-0.1-0.1-0.2
		c0-0.1,0-0.2,0-0.4c0-0.2,0-0.4,0-0.7C285.2,16.5,285.1,15.9,285,15.2z M286.9,8.2V6h-1.6v2.2H286.9z M286.9,8.6h-1.6v2.2h1.6V8.6z
		 M286.9,11.2h-1.6v2.4h1.6V11.2z M286,15l0.2-0.1c0.4,0.4,0.7,0.8,0.9,1.2c0.2,0.4,0.3,0.7,0.3,0.9c0,0.2-0.1,0.3-0.2,0.5
		c-0.1,0.2-0.2,0.3-0.4,0.3c-0.1,0-0.2-0.1-0.2-0.3c0,0-0.1-0.3-0.1-0.8C286.5,16.1,286.3,15.5,286,15z M287.1,14.6l0.1-0.1
		c0.3,0.2,0.6,0.4,0.9,0.7c0.3,0.3,0.4,0.5,0.4,0.7c0,0.1,0,0.3-0.1,0.4c-0.1,0.2-0.2,0.3-0.3,0.3c-0.1,0-0.1-0.1-0.2-0.2
		C287.7,15.7,287.4,15.1,287.1,14.6z M294.9,15.7c-0.3,1.1-0.8,2-1.5,2.8c-0.7,0.7-1.4,1.2-2.3,1.7c-0.4,0.2-1,0.5-1.7,0.7l-0.2-0.3
		c0.8-0.4,1.4-0.7,1.8-1.1c1.5-1.1,2.5-2.4,2.8-3.8H292v0.5c0,0.1,0,0.2-0.1,0.2c-0.1,0.1-0.4,0.1-0.8,0.1c-0.1,0-0.2-0.1-0.2-0.2
		c0.1-0.7,0.1-1.5,0.1-2.5c0-1.2,0-2.1-0.1-2.5c0.4,0.2,0.8,0.5,1.2,0.7h2.1c0-0.2,0-0.6,0-1.4v-0.4H293c-0.5,0-0.9,0-1.3,0.1
		l-0.1-0.7c0.4,0.1,0.9,0.2,1.5,0.2h2.7c0.3-0.4,0.6-0.7,0.9-1.1c0.5,0.4,0.9,0.8,1.3,1.2C298,9.9,298,9.9,298,10
		c0,0.1-0.1,0.1-0.2,0.1h-2.6v0.5c0,0.6,0,1.1,0,1.3h2.2l0.3-0.4l0.3-0.4c0.4,0.3,0.7,0.5,1,0.8c0.1,0.1,0.2,0.2,0.2,0.2
		c0,0.1-0.2,0.3-0.6,0.5v0.9v0.4c0,0.9,0,1.7,0,2.2c0,0.2-0.1,0.3-0.1,0.3c0,0-0.3,0.1-0.9,0.1c-0.1,0-0.2-0.1-0.2-0.2v-0.5h-2.2
		c0.7,1.8,2.4,3,5.2,3.4v0.2c-0.3,0.1-0.5,0.3-0.7,0.4c-0.2,0.2-0.3,0.5-0.4,0.8c-0.8-0.3-1.3-0.6-1.7-0.8c-0.6-0.4-1.2-1-1.7-1.7
		c-0.4-0.6-0.7-1.3-0.9-1.9C295,16,295,15.9,294.9,15.7L294.9,15.7z M294.1,4.5c0.8,0.2,1.3,0.3,1.5,0.4c0.2,0.1,0.3,0.1,0.3,0.3
		c0,0.1-0.1,0.1-0.2,0.2c0,0-0.2,0-0.5,0.1c1.1,1.7,2.8,2.8,5.2,3.3V9c-0.2,0.1-0.4,0.3-0.6,0.5c-0.1,0.2-0.3,0.5-0.4,0.8
		c-1-0.5-1.8-1.1-2.5-1.8c-0.5-0.5-0.9-1-1.4-1.7c-0.2-0.3-0.4-0.6-0.6-0.9c-0.4,0.6-0.8,1.1-1.1,1.5c-1.2,1.3-2.5,2.4-3.8,3.2
		l-0.2-0.2c0.7-0.6,1.3-1.2,1.8-1.7c0.9-1,1.6-2.1,2.2-3.2C294,5,294.1,4.7,294.1,4.5z M293.9,15.3c0.2-0.7,0.2-1.7,0.3-3H292v3
		H293.9z M295,15.3h2.5v-3h-2.3C295.2,13.7,295.1,14.7,295,15.3z"/>
	<path d="M308.1,10.4l0.1-0.2c1.5,0.3,2.6,0.7,3.2,1.1c0.3,0.2,0.5,0.4,0.6,0.6c0.1,0.2,0.1,0.4,0.1,0.6c0,0.2,0,0.4-0.1,0.6
		c-0.1,0.2-0.2,0.3-0.4,0.3c-0.1,0-0.2,0-0.3-0.1c0,0-0.1-0.1-0.2-0.3C310.1,11.8,309.1,11,308.1,10.4z M321.8,9.5l0.3,0.2
		c-0.5,0.8-1.1,1.5-1.7,2c-0.7,0.7-1.4,1.4-2.2,2.2c-1,0.9-2.4,2-4.3,3.3c-0.5,0.3-1.2,0.7-1.9,1.2c-0.4,0.2-0.7,0.4-0.9,0.6
		c-0.1,0.1-0.3,0.2-0.4,0.2c-0.3,0-0.8-0.4-1.3-1.1c-0.4-0.5-0.6-1-0.6-1.4c0-0.2,0-0.3,0.1-0.4c0.2,0.4,0.5,0.8,0.7,0.9
		c0.2,0.1,0.4,0.2,0.7,0.2c0.5,0,1.7-0.5,3.5-1.6c1.9-1.1,3.9-2.6,6-4.4C320.6,10.8,321.2,10.2,321.8,9.5z M310,7.2l0.1-0.3
		c1,0.2,1.8,0.5,2.2,0.6c0.7,0.3,1.1,0.6,1.4,0.9c0.2,0.2,0.2,0.5,0.2,0.8c0,0.2,0,0.4-0.1,0.5c-0.1,0.2-0.2,0.4-0.4,0.4
		c-0.1,0-0.2-0.1-0.3-0.2c0,0-0.1-0.1-0.2-0.3c-0.4-0.4-0.6-0.7-0.8-0.9C311.4,8.1,310.7,7.6,310,7.2z"/>
	<path d="M331.1,19.2l-0.1-0.3c0.8-0.5,1.6-1,2.3-1.7c1.4-1.1,2.5-2.2,3.3-3.1c1.1-1.3,2.1-2.6,2.9-4c0.4-0.7,0.7-1.3,1-2
		c-0.3,0-0.8,0.1-1.4,0.2c-0.7,0.2-1.2,0.2-1.3,0.3l-1.1,0.3c-0.5,0.1-0.8,0.2-1.1,0.3c-0.1,0-0.2,0.1-0.4,0.2
		c-0.1,0-0.2,0.1-0.3,0.1c-0.4,0-0.8-0.3-1.2-1c-0.2-0.4-0.4-0.8-0.4-1.1c0-0.1,0-0.2,0.1-0.4c0.3,0.5,0.5,0.8,0.7,0.9
		c0.2,0.2,0.6,0.2,0.9,0.2c0.4,0,1.1-0.1,2-0.2c1.3-0.2,2.3-0.4,2.9-0.5c0.2-0.1,0.4-0.1,0.6-0.3c0.2-0.1,0.3-0.2,0.4-0.2
		c0.2,0,0.5,0.2,0.9,0.6c0.3,0.3,0.5,0.5,0.5,0.7c0,0.1-0.1,0.2-0.2,0.3c-0.2,0.1-0.4,0.3-0.5,0.5c-0.1,0.1-0.3,0.4-0.5,0.8
		c-0.4,0.6-0.7,1.1-1,1.5c-0.1,0.2-0.5,0.6-1,1.3l-0.2,0.3c2.4,1.3,4,2.3,4.7,3c0.3,0.3,0.5,0.6,0.6,0.9c0.1,0.3,0.1,0.5,0.1,0.8
		c0,0.3,0,0.5-0.1,0.7c-0.1,0.2-0.2,0.2-0.3,0.2c-0.1,0-0.3-0.1-0.4-0.3c0-0.1-0.2-0.3-0.4-0.7c-0.6-0.9-1.3-1.9-2.3-2.8
		c-0.6-0.6-1.2-1.1-1.9-1.6c-0.7,0.9-1.5,1.7-2.1,2.3C334.7,17.3,332.9,18.5,331.1,19.2z"/>
	<path d="M358,20.3l-0.2-0.2c1.1-1.2,2-2.7,2.6-4.3c0.5-1.2,0.7-2.3,0.8-3.3c0-0.1,0-0.3,0-0.4c0-0.2,0-0.4-0.1-0.5
		c-0.1-0.1-0.2-0.2-0.4-0.4c-0.3,0-0.7,0.1-1.2,0.2c-0.6,0.1-1.3,0.3-2.1,0.6c-0.3,0.1-0.5,0.2-0.7,0.3c-0.2,0.1-0.4,0.2-0.6,0.2
		c-0.2,0-0.5-0.1-0.8-0.4c-0.4-0.4-0.7-0.7-0.9-1.1c-0.1-0.1-0.1-0.2-0.1-0.3c0-0.1,0-0.2,0.1-0.4c0.2,0.3,0.5,0.6,0.8,0.7
		c0.2,0.1,0.5,0.2,0.7,0.2c0.2,0,0.4,0,0.7-0.1c0.2,0,1-0.1,2.4-0.4c0.8-0.1,1.8-0.3,2.8-0.4c1.4-0.1,2.3-0.2,2.7-0.3
		c0.3,0,0.8-0.1,1.4-0.3c0.2-0.1,0.3-0.1,0.4-0.1c0.3,0,0.6,0.1,1,0.3c0.2,0.1,0.4,0.2,0.6,0.4c0.2,0.1,0.2,0.3,0.2,0.4
		c0,0.1-0.1,0.2-0.2,0.3c-0.1,0-0.2,0.1-0.3,0.1c-0.1,0-0.3,0-0.5-0.1c-0.8-0.2-1.8-0.2-2.9-0.2c-1.1,0-2.1,0.1-2.9,0.2
		c0.4,0.2,0.7,0.4,0.9,0.6c0.2,0.2,0.3,0.4,0.3,0.6c0,0.2-0.1,0.7-0.3,1.3c-0.3,1-0.7,2-1.3,3c-0.6,1.1-1.2,1.9-1.9,2.6
		C358.9,19.6,358.5,20,358,20.3z M357.2,6.4l0.3-0.2c0.3,0.3,0.5,0.5,0.7,0.6c0.4,0.3,0.9,0.4,1.4,0.4c0.7,0,1.5-0.1,2.5-0.4
		c0.5-0.1,0.9-0.3,1.3-0.5c0.2-0.1,0.4-0.1,0.5-0.1c0.3,0,0.6,0.1,0.9,0.4c0.2,0.2,0.3,0.4,0.3,0.5c0,0.2-0.2,0.3-0.5,0.4
		c-0.5,0.1-1.3,0.3-2.4,0.4c-0.9,0.1-1.6,0.2-2.2,0.2c-0.8,0-1.4-0.2-1.9-0.5C357.9,7.3,357.6,6.9,357.2,6.4z"/>
	<path d="M386.4,11.9l0.2-0.2c0.9,0.8,1.7,1.4,2.2,2c0.8,0.9,1.4,1.6,1.7,2.3c0.2,0.4,0.3,0.7,0.3,1c0,0.4-0.1,0.8-0.3,1.1
		c-0.1,0.2-0.3,0.3-0.5,0.3c-0.1,0-0.2-0.1-0.3-0.3c0-0.1-0.1-0.4-0.3-0.9c-0.1-0.4-0.3-0.8-0.4-1.1c-0.5,0.1-1.2,0.3-2.2,0.5
		c-1.5,0.3-3,0.6-4.5,0.9c-0.6,0.1-1.2,0.2-1.8,0.4c-0.2,0.1-0.3,0.1-0.5,0.2c-0.2,0.1-0.3,0.1-0.4,0.1c-0.3,0-0.5-0.2-0.8-0.6
		c-0.5-0.7-0.8-1.3-0.8-1.8c0-0.1,0-0.3,0.1-0.5c0.2,0.4,0.3,0.6,0.5,0.8c0.2,0.2,0.4,0.3,0.7,0.4c0.1,0,0.3,0,0.5,0
		c0.1,0,0.3,0,0.5,0c0.1-0.3,0.5-1,0.9-2c0.6-1.3,1.2-2.7,1.7-4.2c0.6-1.6,0.9-2.7,0.9-3.1c0-0.5-0.4-0.8-1.1-1.2
		c0.1-0.1,0.3-0.1,0.5-0.1c0.5,0,1,0.2,1.6,0.6c0.6,0.4,0.8,0.7,0.8,1c0,0.1,0,0.2-0.1,0.3c0,0-0.1,0.1-0.2,0.2
		c-0.2,0.3-0.5,0.8-0.8,1.5c-0.7,1.4-1.4,2.9-2.3,4.5c-0.6,1.1-1,1.9-1.4,2.5c1.1-0.1,2.6-0.2,4.3-0.4c1.6-0.2,2.9-0.4,3.7-0.5
		c-0.2-0.5-0.6-1.1-1.1-1.9C387.6,13.5,387.1,12.8,386.4,11.9z"/>
</g>
</svg>
