<?xml version="1.0" encoding="utf-8"?>
<!-- Generator: Adobe Illustrator 18.0.0, SVG Export Plug-In . SVG Version: 6.00 Build 0)  -->
<!DOCTYPE svg PUBLIC "-//W3C//DTD SVG 1.1//EN" "http://www.w3.org/Graphics/SVG/1.1/DTD/svg11.dtd">
<svg version="1.1" id="レイヤー_1" xmlns="http://www.w3.org/2000/svg" xmlns:xlink="http://www.w3.org/1999/xlink" x="0px"
	 y="0px" width="203.8" height="75.6" viewBox="96.3 35.2 207.4 79.6" enable-background="new 96.3 35.2 207.4 79.6" xml:space="preserve">
<rect x="98.5" y="36.9" opacity="0.4" fill="#FEFEFE" width="203.8" height="75.6"/>
<path fill="#231815" d="M96.3,35.2v79.6h207.4V35.2H96.3z M300.1,111.2H99.9V38.8h200.2V111.2z"/>
<g>
	<path d="M167.2,86.4H154V63.6h13.2v4h-8.3v5h7.7v4h-7.7v5.9h8.3V86.4z"/>
	<path d="M176.8,77.7v8.8H172V63.6h6.7c3.1,0,5.4,0.6,6.9,1.7c1.5,1.1,2.2,2.8,2.2,5.1c0,1.3-0.4,2.5-1.1,3.6
		c-0.7,1-1.8,1.9-3.1,2.5c3.4,5.1,5.7,8.5,6.7,10h-5.4l-5.5-8.8H176.8z M176.8,73.7h1.6c1.5,0,2.7-0.3,3.4-0.8
		c0.7-0.5,1.1-1.3,1.1-2.4c0-1.1-0.4-1.9-1.1-2.3c-0.7-0.5-1.9-0.7-3.5-0.7h-1.5V73.7z"/>
	<path d="M207.1,86.4l-1.7-5.4h-8.3l-1.7,5.4h-5.2l8.1-22.9h5.9l8.1,22.9H207.1z M204.3,76.9c-1.5-4.9-2.4-7.7-2.6-8.4
		c-0.2-0.6-0.3-1.2-0.4-1.5c-0.3,1.3-1.3,4.6-3,9.9H204.3z"/>
	<path d="M228.6,80.1c0,2.1-0.7,3.7-2.2,4.9s-3.5,1.8-6.2,1.8c-2.4,0-4.6-0.5-6.5-1.4v-4.5c1.5,0.7,2.8,1.2,3.9,1.5
		c1.1,0.3,2,0.4,2.9,0.4c1.1,0,1.9-0.2,2.4-0.6c0.6-0.4,0.9-1,0.9-1.8c0-0.4-0.1-0.8-0.4-1.2s-0.6-0.7-1.1-1s-1.5-0.8-3-1.5
		c-1.4-0.7-2.4-1.3-3.1-1.9c-0.7-0.6-1.3-1.3-1.7-2.1c-0.4-0.8-0.6-1.7-0.6-2.8c0-2,0.7-3.6,2.1-4.8c1.4-1.2,3.3-1.7,5.7-1.7
		c1.2,0,2.3,0.1,3.4,0.4s2.2,0.7,3.4,1.2l-1.6,3.8c-1.2-0.5-2.2-0.8-3-1c-0.8-0.2-1.6-0.3-2.4-0.3c-0.9,0-1.6,0.2-2.1,0.6
		c-0.5,0.4-0.7,1-0.7,1.7c0,0.4,0.1,0.8,0.3,1.1c0.2,0.3,0.5,0.6,0.9,0.9c0.4,0.3,1.5,0.8,3.1,1.6c2.1,1,3.6,2,4.4,3.1
		C228.2,77.3,228.6,78.6,228.6,80.1z"/>
	<path d="M245.9,86.4h-13.2V63.6h13.2v4h-8.3v5h7.7v4h-7.7v5.9h8.3V86.4z"/>
</g>
<rect x="144.5" y="-20" fill="none" width="121.3" height="34.3"/>
<text transform="matrix(1 0 0 1 156.8142 7.4401)" font-family="'OpenSans-Bold'" font-size="32">ERASE </text>
</svg>
