<?xml version="1.0" encoding="utf-8"?>
<!-- Generator: Adobe Illustrator 18.0.0, SVG Export Plug-In . SVG Version: 6.00 Build 0)  -->
<!DOCTYPE svg PUBLIC "-//W3C//DTD SVG 1.1//EN" "http://www.w3.org/Graphics/SVG/1.1/DTD/svg11.dtd">
<svg version="1.1" id="レイヤー_1" xmlns="http://www.w3.org/2000/svg" xmlns:xlink="http://www.w3.org/1999/xlink" x="0px"
	 y="0px" viewBox="0 0 841.9 595.3" enable-background="new 0 0 841.9 595.3" xml:space="preserve">
<rect x="11" y="145.3" fill="#ECACB5" width="819" height="303"/>
<path fill="#231815" d="M5.4,138.1v319.1h831V138.1H5.4z M822,442.7H19.8V152.6H822V442.7z"/>
<g>
	<g>
		<path fill="#231815" d="M342.4,337.4h-16.8v-34.3h-31.5v34.3h-16.8V258h16.8v31.1h31.5V258h16.8V337.4z"/>
		<path fill="#231815" d="M434.6,297.6c0,13.2-3.3,23.3-9.8,30.3c-6.5,7.1-15.9,10.6-28,10.6c-12.2,0-21.5-3.5-28-10.6
			s-9.8-17.2-9.8-30.4s3.3-23.3,9.8-30.3c6.5-7,15.9-10.5,28.1-10.5c12.2,0,21.5,3.5,28,10.5C431.4,274.3,434.6,284.4,434.6,297.6z
			 M376.6,297.6c0,8.9,1.7,15.6,5.1,20.1s8.4,6.7,15.1,6.7c13.4,0,20.2-8.9,20.2-26.8c0-17.9-6.7-26.8-20.1-26.8
			c-6.7,0-11.8,2.3-15.2,6.8C378.3,282,376.6,288.7,376.6,297.6z"/>
		<path fill="#231815" d="M498,315.4c0,7.2-2.6,12.8-7.7,17c-5.2,4.1-12.3,6.2-21.5,6.2c-8.5,0-16-1.6-22.5-4.8v-15.7
			c5.4,2.4,9.9,4.1,13.6,5.1s7.1,1.5,10.2,1.5c3.7,0,6.5-0.7,8.5-2.1c2-1.4,3-3.5,3-6.3c0-1.6-0.4-2.9-1.3-4.2
			c-0.9-1.2-2.1-2.4-3.8-3.5c-1.7-1.1-5.1-2.9-10.3-5.4c-4.9-2.3-8.5-4.5-10.9-6.6c-2.4-2.1-4.4-4.5-5.8-7.3
			c-1.4-2.8-2.2-6.1-2.2-9.8c0-7,2.4-12.6,7.1-16.6c4.8-4,11.3-6,19.8-6c4.1,0,8.1,0.5,11.8,1.5c3.8,1,7.7,2.4,11.8,4.1l-5.4,13.1
			c-4.2-1.7-7.7-3-10.5-3.6c-2.8-0.7-5.5-1-8.2-1c-3.2,0-5.6,0.7-7.3,2.2c-1.7,1.5-2.6,3.4-2.6,5.8c0,1.5,0.3,2.8,1,3.9
			c0.7,1.1,1.8,2.2,3.3,3.2c1.5,1,5.1,2.9,10.7,5.6c7.4,3.6,12.5,7.1,15.3,10.7C496.6,305.8,498,310.2,498,315.4z"/>
		<path fill="#231815" d="M543,337.4h-16.8V272h-21.6v-14h60v14H543V337.4z"/>
	</g>
</g>
</svg>
