<?xml version="1.0" encoding="utf-8"?>
<!-- Generator: Adobe Illustrator 18.0.0, SVG Export Plug-In . SVG Version: 6.00 Build 0)  -->
<!DOCTYPE svg PUBLIC "-//W3C//DTD SVG 1.1//EN" "http://www.w3.org/Graphics/SVG/1.1/DTD/svg11.dtd">
<svg version="1.1" id="レイヤー_1" xmlns="http://www.w3.org/2000/svg" xmlns:xlink="http://www.w3.org/1999/xlink" x="0px"
	 y="0px" viewBox="0 0 841.9 595.3" enable-background="new 0 0 841.9 595.3" xml:space="preserve">
<g>
	<g>
		<path d="M374.1,4.9l0.6-0.6h0.6c0-0.6,0.6-1.1,1.7-0.6V3.2c0.6,0.6,1.1,0.6,2.3,1.1h0.6c4,4.5,8,9.7,11.9,13.6
			c5.1,8.5,5.7,15.9,1.7,24.4c-1.1,1.7-2.3,3.4-3.4,5.1c-2.3,3.4-4.5,7.4-6.8,10.8c-6.8,7.4-14.2,14.2-21,21
			c1.1-0.6,2.3-0.6,2.8-2.3h0.6c-0.6,1.7-1.1,3.4-2.3,4c4.5,1.7,10.2,2.3,15.3,2.3c1.7-0.6,2.8-1.1,4-2.3c3.4-1.7,6.8-2.3,11.9-2.3
			c6.8,3.4,13.1,7.4,17.6,11.9c3.4,3.4,6.8,7.4,10.8,11.4c5.1,1.7,8.5,5.1,9.7,9.7c-0.6,0.6-0.6,1.1,0,1.7c0,1.7,1.1,3.4,2.8,4
			c1.1,0.6,2.8,1.1,3.4,2.8c0.6-0.6,1.1-1.1,2.8-1.1c-0.6,1.7-0.6,2.3,1.1,2.3c4,2.8,6.3,5.7,6.8,10.2c-0.6,0.6-1.1,0.6-1.7,1.1
			c0,1.1,0,1.7,0.6,2.3c-1.7,0-2.8,0-3.4,0.6c0.6,1.1,1.1,2.3,1.7,3.4c-1.1,1.1-1.7,1.1-2.3,0.6c-1.1,0.6-2.3,1.1-4,1.1
			c0.6,1.7,1.1,2.8,1.1,4h-4.5c0.6,0.6,1.1,1.1,1.7,1.7c-0.6,0.6-0.6,1.1-1.1,0.6c-0.6,0-1.1,0-1.1-0.6c-2.3,0-4,0-5.7,0.6
			c-2.8,1.1-5.7,2.3-8.5,2.8c-2.8,1.7-5.1,2.3-8,2.3c-0.6,0.6-1.7,1.1-2.3,1.1c-10.2,6.3-19.9,14.2-27.8,22.7
			c6.2-4.5,11.9-10.8,17-17.6c-1.7-1.7-2.8-2.8-4.5-4.5c-0.6,1.1-1.7,1.7-2.3,1.1c-0.6,0-0.6,0-0.6-0.6c-2.8,1.7-5.7,2.8-9.1,2.8
			c-0.6,0.6-0.6,0.6-0.6,1.1c0-0.6,0-1.7-0.6-2.3c-0.6,0.6-0.6,0.6-1.1,0.6V156c-2.8,2.8-6.8,3.4-10.8,2.8
			c-5.1,2.8-9.7,4.5-14.8,5.1c-14.8,0.6-27.3,4-38.1,10.8c5.1,1.7,9.7,2.8,14.8,3.4c1.1,0.6,2.8,0.6,5.1-0.6
			c0.6-0.6,1.7-0.6,1.7-0.6c8.5,3.4,15.9,8,23.3,14.2c4.5,4,9.1,8,13.6,11.9c5.1,5.1,9.1,10.2,12.5,15.3c2.8,3.4,2.8,6.8,1.1,9.7
			c-0.6,1.7-1.1,3.4-0.6,5.1c-1.1-0.6-2.3-0.6-3.4-1.1c-0.6,0.6-1.1,1.1-1.7,1.1v-0.6c-1.7,2.3-3.4,2.8-6.3,2.3
			c-0.6,0.6-0.6,1.7,0,2.3c1.7,0.6,2.3,1.7,1.1,3.4c-1.7-0.6-4-1.1-5.7-1.1c-1.7-0.6-3.4-1.7-4-3.4c-5.1,1.1-9.1,1.7-14.2,1.7
			c-10.8,3.4-21,6.3-31.8,7.4c-2.3,0.6-5.1,1.1-7.4,0.6c-1.7,0-3.4,1.1-4.5,2.8c-1.1,4.5-0.6,9.1,2.3,13.1c4.5,0,9.1-0.6,13.6-1.7
			c35.8-5.7,73.3-7.4,110.8-5.1c5.1,0.6,10.8,0.6,17.1,0.6c1.7,0.6,2.8,0,2.8-1.7c2.8-0.6,5.7-1.1,8.5-1.7c0,0.6,0,0.6,0.6,0.6
			c1.7-0.6,4-1.1,6.3-0.6c1.7,0.6,2.8,1.7,4.5,2.3c6.8,4,13.1,9.1,19.3,14.2c2.3,4,3.4,8,4,11.9c-0.6,2.8,0.6,6.3,2.3,9.1
			c-1.1,1.7-2.3,2.8-4,3.4c-2.8-0.6-5.7-0.6-7.4,1.1c-0.6,1.1-2.8,1.7-8,2.3c-4.5,0.6-11.4-1.7-18.8-6.3c-9.1-5.7-18.8-9.1-29-9.7
			c-2.3-0.6-4.5-0.6-6.2-1.1c-3.4,0-6.8,0-9.7-0.6c-0.6-0.6-0.6-0.6-0.6-1.1c-7.4-0.6-14.2-1.7-21-3.4c-1.7,0.6-3.4,1.1-5.1,0.6
			l0.6-0.6c-2.3-0.6-4.5-0.6-6.3,0c-2.3,0-5.1,0.6-6.8,1.1v-0.6c-1.7-0.6-3.4-0.6-4.5,0h-2.8c-2.8,0.6-6.3,1.1-9.7,1.1
			c-4,0.6-8.5,0.6-13.1,0.6c-2.3,0.6-4.5,1.1-6.3,1.1v-0.6c-2.8,0-5.7,0.6-7.4,1.1c-0.6,0.6-0.6,0.6-0.6,0c0,0,0,0-0.6-0.6
			c-2.8,0.6-5.1,1.1-7.4,1.7c-0.6,0.6-0.6,0.6-0.6,0c-0.6,0.6-0.6,0.6-1.1,0c-0.6,0-1.7,0-2.8,0l0.6,0.6h-1.1v-0.6
			c-4.5,0.6-8,0.6-11.9,1.1c-1.1,0.6-1.1,0.6-0.6,1.1h-0.6c-1.1,6.2-1.7,11.4-1.1,17c1.7,0.6,4,1.7,5.7,2.8c1.1,1.1,2.8,1.7,5.7,2.3
			c4,3.4,8,6.8,11.9,9.7c2.8,2.3,5.1,5.7,6.3,8.5c1.7,2.8,1.7,5.1,0.6,6.8c0.6,1.1,0.6,2.3,1.1,2.8c-2.3,5.1-5.7,7.4-10.8,8.5
			c-1.7,2.8-4.5,4.5-8,5.1c2.8,1.7,6.3,2.3,10.2,2.8c0.6,0.6,1.1,1.1,1.7,1.1v-0.6c2.8,1.7,5.1,2.8,8,3.4v-0.6
			c-3.4-1.7-6.8-4-9.7-6.8c2.3,1.7,5.1,2.3,8,2.8c-0.6,0-1.1,0-1.1-0.6c1.1,1.1,2.8,1.7,5.7,2.3c-1.7-0.6-2.8-1.7-3.4-2.3
			c2.8,1.7,5.7,3.4,9.1,4c25,8.5,48.9,19.9,71,34.1c4,2.3,6.3,5.1,7.4,8.5c0.6,0,1.1,0,2.3,0.6c-0.6,0.6-1.1,1.1-1.1,1.7
			c0,0.6,0.6,0.6,1.1,0.6c-0.6,2.3-1.7,4-2.3,5.7c1.7,1.7,2.8,3.4,3.4,5.1c-4,1.7-7.4,2.8-10.2,4.5c-0.6,1.7-2.3,3.4-4,4
			c-5.7,6.3-11.9,9.1-20.5,8.5c-0.6,0.6-1.1,0.6-1.1,0c0,0,0,0-0.6,0v-0.6c-1.1,0.6-2.3,1.1-3.4,1.1c-1.7,0.6-2.8,0.6-3.4,1.1
			c0.6,0.6,0.6,0,0.6-0.6c-6.8,2.8-13.6,4.5-20.5,5.1c-1.7,0.6-2.8,1.1-4.5,1.1c0.6,0,0.6-0.6,0.6-1.1c-0.6,0-0.6,0-0.6-0.6
			c-5.1,1.7-10.8,2.3-16.5,1.7c-0.6,0.6-1.1,0.6-1.7,0c-1.7,0.6-2.3,1.1-2.8,1.7l-0.6-0.6c-5.1,0.6-10.8,1.1-16.5,1.7
			c-6.8,2.3-13.1,4-19.9,4.5c-4,0-8,0-11.4,0c0,6.3-0.6,12.5-1.7,18.2c-1.1,4.5-1.7,9.7-1.7,14.8c0,7.4-0.6,14.2-1.7,20.5
			c0,5.7,0,11.4,0.6,15.9c-1.1,2.8-1.7,5.1-2.3,8c1.1,9.1,1.7,17.6,1.7,26.1c1.7,4,1.7,8,1.1,11.4c0,1.1,0,2.3-0.6,2.8
			c0.6,4.5,0,8.5-1.7,12.5c-4,1.1-6.8,2.8-8.5,5.1c-1.7,0-2.3,0.6-2.3,1.7c-1.7,2.3-1.7,5.1-0.6,7.4c0,1.7-0.6,3.4-2.3,4.5
			c-5.1,0-9.1-2.8-11.9-8c-2.3-2.3-2.8-4-2.3-6.8c-5.1-7.4-9.1-14.2-11.9-21c-1.7-2.3-2.8-4.5-3.4-6.8c-0.6-0.6-1.1-1.7-1.1-2.8
			l0.6-0.6c-0.6-0.6-0.6-1.1-0.6-2.3c0.6-0.6,1.1-1.7,2.3-2.3h-0.6c0-0.6,0-1.1,0.6-2.3c-0.6-0.6-1.1-0.6-1.7-0.6
			c0.6,0,1.1,0,2.3,0.6c0-0.6,0-0.6-0.6-1.1c2.3,1.7,4.5,4,6.3,6.3c1.7-0.6,1.7-1.7,0.6-2.8c1.7,0,1.7-0.6,0-1.1v-1.1
			c1.7,0.6,2.3,0.6,2.3-0.6c0.6,0.6,1.7,0.6,2.3,0c0.6,0.6,1.1,0.6,1.7,0c1.7-0.6,2.8-1.1,2.3-2.8c0-0.6,0.6-1.1,1.1-1.7h0.6
			c0.6-1.1,0.6-1.7,1.1-3.4c-0.6-18.2-1.7-35.8-2.8-52.9c-1.1-10.8-1.1-21-0.6-31.8c-18.8,2.3-37.5,4.5-55.1,6.8
			c-14.8,2.8-29.6,2.8-43.2,1.1c-13.1,1.7-23.9-1.7-33-10.8c0.6-0.6,1.1-1.1,1.1-2.8l1.1-0.6c-0.6-0.6-1.1-1.7-0.6-2.8
			c0.6-0.6,1.1-1.1,1.7-2.8c0.6,0.6,1.1,0,2.3-0.6c-0.6-0.6,0-1.1,0.6-1.7c1.1-1.1,2.3-2.3,4-4c1.1-0.6,2.3-2.3,3.4-4
			c1.1,0.6,1.7,0.6,2.3-1.1c6.8-2.8,14.8-5.7,23.3-8c12.5-4,26.1-8.5,38.6-13.6c0.6-0.6,0.6-1.1,0.6-2.3v0.6
			c0.6-2.3,1.1-4.5,2.8-7.4h0.6c1.7-3.4,4.5-7.4,7.4-12.5c1.1-2.8,2.8-5.7,4.5-8.5h0.6c0.6-1.7,2.3-2.8,4.5-4c0.6,0,1.1-0.6,1.1-2.3
			c0.6,0.6,1.1,0.6,1.1-0.6c0,0.6,0,0.6,0.6,0.6c0-0.6,0-1.1,0.6-1.7c0.6,0.6,1.1,0.6,1.7,0v-1.1c0,0.6,0.6,1.1,1.7,1.7
			c0-0.6,0.6-1.1,1.7-0.6c0.6,0.6,1.1,1.1,2.3,1.1v-0.6h1.1v-0.6c0.6,1.1,1.7,2.3,2.8,3.4l0.6-0.6v-1.1c0,1.7,0.6,2.8,2.3,3.4
			c5.1-1.1,9.7-2.8,14.8-5.1c0.6-2.8,0-6.2-0.6-9.7c-8.5-1.7-16.5-3.4-24.4-5.1c-8.5,0-15.9,0-23.9,0c-0.6-0.6-1.7-1.7-2.3-3.4
			l-0.6-2.3h1.1v-2.3c0.6,1.1,1.1,1.1,2.3,0c-0.6,0-0.6,0-0.6-0.6c0,0.6,0.6,1.1,1.1,0.6v-1.7c0.6,1.1,1.1,1.7,2.3,1.1v-1.1h0.6
			c-0.6-0.6-0.6-1.1-0.6-2.3c0.6,1.1,1.1,1.7,2.8,2.3c0-0.6,0-1.7,0-2.8c-0.6,0-0.6,0,0-0.6c0,0.6,0.6,1.1,1.1,1.1v-1.1
			c0-0.6,0-1.1,0.6-2.3c-0.6-0.6-1.1-1.7-1.7-2.8c0,0.6,0.6,0.6,1.1,0.6c0.6,1.7,1.1,2.3,2.8,1.7h0.6c0-0.6,0-1.7-0.6-2.3
			c0.6,1.1,1.1,1.7,2.3,2.3v-0.6c4,1.7,8,1.7,13.1,0c6.3-2.3,13.1-5.1,20.5-8.5c0-6.8,0-15.3,0.6-23.9c-0.6,0.6-1.1,1.1-1.7,0.6
			v-0.6c-1.7,0.6-3.4,1.7-4.5,2.3c-6.3,1.7-10.8,2.3-15.9,2.8c-9.1,3.4-17.6,5.1-26.7,5.7c-8.5,2.3-16.5,3.4-25,4
			c-1.7,1.7-4,2.3-5.7,2.3c-3.4-0.6-6.2,0-8.5,0.6c-2.8,1.7-5.1,2.3-8,2.8v-0.6c-0.6,0-1.7,0-2.8,0v0.6c-2.8,0-5.7,0.6-8,1.7
			c-8.5,4-17,8.5-25,13.1c-3.4,2.8-8,5.7-11.9,8c-4.5,2.8-9.7,5.7-14.8,7.4c-3.4,1.7-6.3,3.4-9.1,5.1c-3.4,1.7-5.7,3.4-6.8,5.7
			c-1.7,2.8-4,4.5-6.3,6.3c-1.7,1.1-4,2.8-6.3,3.4c-8,1.7-13.1-0.6-15.3-6.3c-2.3-2.8-4.5-6.3-5.7-10.2c0-1.1,0-2.3,0.6-4
			c0-1.1,0-2.8,0-5.1c0.6-0.6,2.3-1.7,3.4-2.8c0.6-1.7,1.7-4,2.3-5.7c0.6-0.6,1.1-1.1,1.7-1.7h0.6c0.6-1.7,2.3-2.3,4.5-2.8
			c1.7-1.7,4-3.4,7.4-5.1c2.8-0.6,5.1-1.7,7.4-2.8c2.3,0.6,5.1,0.6,8,1.1c10.2-2.8,18.8-6.8,27.3-12.5c8-4,15.3-7.4,23.9-10.8
			c25.6-14.8,50.6-30.1,74.4-47.7c15.3-7.4,31.3-15.3,47.2-22.7c-0.6-2.8-0.6-6.3-1.1-9.7c-6.3,0-12.5,0-17.6,0
			c-13.1,2.3-25.6,2.8-39.8,1.1c-2.8-0.6-4.5-1.7-5.7-3.4c-0.6-1.7-1.1-2.8-1.7-4.5c1.1-0.6,2.3-1.1,3.4-2.8h-0.6
			c1.7-0.6,2.8-1.1,4-2.8c1.7,0.6,2.3,0,0.6-1.7c2.8,0,5.1-1.1,5.7-4c1.1-0.6,1.7-1.1,1.1-2.3c1.7,0.6,2.3,0,2.8-1.1
			c0.6,0.6,1.1,0.6,1.7-0.6c-4-4.5-7.4-9.1-9.7-14.2c-3.4-4-5.7-8-6.3-12.5c0-1.7-0.6-2.8-2.3-4.5c-0.6,0.6-1.1,0-1.7-1.7
			c-0.6-1.1,0-2.3,2.3-4c-1.1-0.6-1.1-1.7,0.6-2.8c0.6,0.6,1.1,0,1.1-0.6c0-0.6,0-1.1,0-1.7c1.1-1.7,2.8-2.8,5.1-3.4
			c1.1-1.1,2.3-2.8,4-4l0.6-0.6c-0.6,0-0.6,0-0.6-0.6c0,0.6,0,0.6,0.6,0.6c0.6-0.6,1.1-1.7,1.1-2.8H207c0.6-0.6,0.6-1.1,0.6-1.7
			c-1.7,0.6-3.4,1.1-5.1,2.3c-2.8,1.7-5.1,2.8-8,4c-2.3,2.8-4.5,4.5-6.8,7.4c0,0.6,0,0.6,0.6,0v0.6c-1.7,1.1-3.4,2.3-5.1,2.8
			c-2.8,4-6.8,7.4-11.4,9.1c-2.8,2.8-5.7,5.1-8.5,7.4c0-0.6,0.6-0.6,1.1-1.1c-0.6,0-0.6,0-1.1,0c2.8-1.7,5.7-4,8.5-6.8
			c0-0.6,0-0.6,0-1.1c-1.7,0.6-2.8,1.1-4.5,2.3c-1.7,0-2.8,0-3.4,0c-2.8,1.1-5.1,1.7-6.8,1.7c-5.7,2.8-11.4,4.5-15.9,6.3
			c-2.8,0.6-5.1,1.1-8,1.7c-3.4,1.7-5.7,2.8-8.5,3.4c-5.7,1.7-10.2,3.4-13.6,6.3c-2.8,2.3-5.7,4.5-9.1,6.3c-1.1,1.7-2.3,2.3-4,1.7
			c0.6-1.1,0.6-2.3,0-3.4c-1.1-1.1-1.7-1.1-2.3,0.6c0-4,1.1-8,3.4-11.4c4-12.5,8.5-25.6,14.8-38.1c8-12.5,15.9-24.4,25-36.4
			c14.8-17.6,31.3-34.7,48.9-51.7c2.8-2.8,6.3-5.1,10.8-6.8c4,0,8-1.7,11.4-5.7c1.7,0,2.8-0.6,3.4-2.3c0.6,0.6,1.1,1.1,1.7,1.1
			c0.6-2.3,2.3-2.8,5.1-2.3c0.6,1.1,1.7,1.7,2.3,2.3c0.6-0.6,1.7,0,2.3,0.6c1.1-0.6,1.7-2.3,1.7-4C240.5,48,249.1,60.5,253,76.5
			c0,5.7,0.6,11.9,2.3,17.6c0.6,4,1.1,7.4,0.6,9.7c-0.6,0.6-1.1,0.6-1.7,0c-0.6,0.6-0.6,1.1-0.6,1.7c0,0.6-0.6,1.1-1.1,1.1h-0.6
			c-1.1,1.1-1.7,1.7-2.3,2.3h-0.6c-1.7,1.7-2.8,2.3-4.5,2.8c-1.1,1.7-2.8,3.4-5.7,4.5c-0.6,1.7-1.7,2.3-3.4,2.8v-0.6
			c-7.4,6.3-13.1,11.9-19.3,18.2c-2.3,1.1-2.8,2.3-2.3,3.4c1.1,0.6,2.3,1.1,3.4,1.7c0.6-1.1,1.7-1.7,2.8-1.1
			c-0.6-1.1,0.6-1.7,2.3-2.3c10.8,8,18.2,17.6,21,30.1c0.6,5.7,1.1,11.9,1.1,18.2c5.7-1.1,11.9-2.8,18.2-5.1
			c0.6-2.8,1.1-5.7,0.6-8.5c-0.6-2.3-1.1-4.5-2.3-6.8c-0.6-1.1-0.6-2.3,0-3.4c-0.6,0-0.6,0-0.6-0.6c0.6,0.6,1.1,1.1,1.7,0.6
			c0.6,0,1.1-0.6,0.6-1.1c0.6,0.6,0.6,0.6,1.1,0.6c0-0.6,0-1.7-0.6-2.3l0.6-0.6c-0.6,0-0.6,0-1.1-0.6c1.7,0,3.4,0.6,5.1,1.1
			c-1.7-1.7-2.3-2.8-2.3-4.5c0.6,0.6,1.7,1.7,3.4,2.3c0-0.6-0.6-1.1-1.1-1.7v-1.1c2.3,1.1,3.4,0.6,4-1.1c-0.6,0-1.1-0.6-0.6-1.7
			c0.6,0,0.6,0,1.1,0c0.6-0.6,0.6-0.6,1.1,0h0.6c0.6-0.6,0.6-1.7,0-2.3c1.7,1.1,2.8,1.1,4.5,0c-0.6,0-0.6,0-0.6,0
			c5.7,0.6,10.8,2.8,15.3,6.8h1.1v0.6c1.7,1.7,3.4,2.3,5.1,2.3c1.7,1.7,3.4,2.8,5.1,4c6.3-6.3,11.9-13.6,17-22.2
			c-5.7-1.7-11.4-4-16.5-6.8c-1.7-1.7-2.8-3.4-3.4-5.1c-5.7-1.1-8.5-3.4-9.7-7.4c-2.8-5.1-5.1-10.2-6.8-15.3
			c-3.4-4.5-4.5-9.7-2.8-15.9c3.4-9.7,8-18.8,13.6-27.8C311.6,46.3,327.5,31,344,15.7c1.1-1.7,2.8-2.8,5.7-4c0-1.1,0.6-1.7,2.3-1.1
			c0.6-0.6,1.1-1.1,2.8-1.7c0.6-0.6,1.7-0.6,2.3,0c2.8-0.6,4.5-1.1,5.7-4l0.6-0.6c0.6,1.7,1.1,1.7,1.7,1.1c1.7-0.6,2.8-2.3,2.8-4.5
			c0.6,1.7,1.1,1.7,1.7,0C370.1,3.2,371.8,4.3,374.1,4.9z M245.1,402.1c-0.6,1.1-1.7,1.7-2.8,1.1c-10.2,3.4-19.9,3.4-30.1,0
			c-1.7,0.6-3.4,1.1-4.5,1.1c-4.5,2.8-9.1,4.5-12.5,5.1c-11.9,5.1-23.3,10.2-35.8,14.8c2.8,4,6.8,5.7,11.9,5.7
			c30.1,0.6,60.8-2.3,92.1-8.5c0-5.1,0-10.8,0.6-15.3c-1.7,0-2.8-0.6-4.5-1.1C254.2,403.8,249.1,402.7,245.1,402.1z M312.7,356.1
			c1.7,1.7,4,2.8,5.1,3.4c2.8,1.7,5.7,3.4,8,5.1c5.1,2.8,9.1,6.8,10.8,11.9c-0.6,0.6-1.1,1.1-1.7,1.7c-0.6,0.6-0.6,1.1-0.6,1.7
			c0.6,1.7,1.1,2.8,1.7,3.4c0.6,1.1,0,1.7-0.6,2.3c1.7,1.1,2.8,2.3,4.5,3.4c-0.6,0.6-1.1,1.1-1.1,1.7c-0.6,1.7-2.3,2.8-4,2.8
			c0,0.6,0,1.1,0.6,1.1c-2.3,1.7-4.5,2.8-6.8,3.4c-6.2,2.3-11.4,3.4-15.3,4c-2.8,1.7-5.1,4-6.8,6.3c-0.6,1.1-1.1,1.1-1.7,0
			c-1.7,2.8-4,5.1-6.8,6.8c13.6-2.8,27.3-5.1,41.5-8c13.6-2.8,27.3-7.4,40.9-13.1c-2.8-2.3-5.7-4.5-8-7.4h0.6
			c-5.1-1.7-8.5-4.5-11.4-7.4c0-0.6,0.6-0.6,1.1-0.6c-8.5-5.1-17.6-9.7-26.7-14.8c-1.7,0-2.8-0.6-4.5-1.1h-0.6c-0.6,0-0.6,0-0.6-0.6
			h-0.6c-3.4-0.6-6.3-1.1-9.1-2.8h1.1C318.4,358.3,315.6,357.2,312.7,356.1z M318.4,277.1c-1.7-0.6-4-0.6-5.7,1.1
			c1.7,1.1,2.8,1.1,4.5,0.6v0.6c0-1.1,1.7-2.3,4.5-2.8C320.1,275.9,319,276.5,318.4,277.1z M312.7,352.6v0.6
			c5.7,2.3,11.9,4.5,18.2,6.8c4,2.8,8.5,4.5,13.1,6.3l-0.6,0.6c0.6,1.1,2.3,1.7,4,1.7c0.6,0.6,1.7,1.1,2.3,1.7c0.6,0,0.6,0,1.1,0.6
			c1.1,0.6,2.3,1.1,4,1.1c1.1,0.6,1.7,1.7,2.3,2.3v-0.6c0.6,0.6,1.1,0.6,2.3,1.1h-0.6c7.4,5.1,15.9,10.2,25,14.8
			c-1.1-0.6-1.7-1.1-2.3-1.7c-9.7-6.8-19.9-13.6-30.7-19.3h-0.6C338.9,361.7,325.8,356.6,312.7,352.6z M313.3,349.8
			c5.7,2.8,12.5,5.7,19.3,8C325.8,355.5,319,352.6,313.3,349.8z M315.6,348.7l-1.1,0.6c2.8,1.7,6.8,2.8,10.8,3.4
			c-0.6,0-0.6,0-0.6-0.6C320.7,350.9,317.8,349.8,315.6,348.7z M331.5,265.7c-0.6,0.6-0.6,1.1-0.6,1.7c-0.6,0-0.6-0.6-0.6-1.1
			c-1.7,1.1-4,1.7-5.7,1.7c-0.6,0-1.1,0-1.7,0c-2.8,0.6-4.5,1.1-5.7,1.1c5.7-0.6,11.4-1.1,17.6-2.8h-0.6
			C332.6,266.8,332,266.8,331.5,265.7z M323.5,349.8l-6.3-1.7l9.7,3.4L323.5,349.8z M318.4,347c2.8,1.7,6.3,2.3,9.7,2.8
			c2.3,1.7,5.1,2.8,8.5,4C331.5,350.9,325.2,348.7,318.4,347z M341.1,267.4l-0.6,0.6c-2.8,0-5.7,0-8.5,0.6c-2.8,0-5.1,0.6-7.4,1.1
			c-0.6,0-0.6,0-0.6-0.6c-1.7,0.6-3.4,0.6-5.1,1.1c1.7,0.6,2.8,0,4-0.6c2.8,0,5.1,0,6.8-0.6c1.7-0.6,2.8-0.6,3.4-1.1
			c2.8,0.6,6.3,0.6,9.1,0v-0.6l-0.6,0.6C341.1,268,341.1,268,341.1,267.4z M328.6,347.5h-1.7c3.4,0.6,6.8,1.7,9.7,3.4
			C333.7,349.8,330.9,348.7,328.6,347.5z M336.6,356.1l-8.5-2.8l12.5,4.5L336.6,356.1z M335.4,354.4c6.8,2.8,14.2,6.2,21.6,9.1
			C350.2,360,342.8,357.2,335.4,354.4z M339.4,353.8c5.1,2.8,10.8,5.1,17,6.8c-4.5-1.7-8.5-3.4-12.5-5.1
			C342.3,354.9,340.6,354.4,339.4,353.8z M343.4,352.6c4,2.3,7.4,4,9.7,4.5c2.3,0.6,3.4,1.1,4,0.6l-0.6,0.6
			c-1.1-0.6-2.3-0.6-3.4-1.1C349.7,355.5,346.2,354.4,343.4,352.6z M348.5,362.9c4.5,1.7,9.1,4,13.6,5.7c-2.8-1.1-5.7-2.3-7.4-4V364
			l-1.1,0.6C351.9,364,350.2,362.9,348.5,362.9z M357.6,370.3c1.7,1.1,2.8,1.7,4,1.7c2.8,2.3,5.1,4,8.5,5.1
			c5.1,4.5,10.8,8.5,17,11.4c-7.4-4.5-14.8-9.7-22.2-14.8C363.3,372.5,360.5,371.4,357.6,370.3z M403.1,259.4
			c-1.7,0.6-2.8,1.1-4.5,0.6c-2.8,0.6-5.1,0.6-8,0c-6.2,0.6-12.5,0.6-17.6,1.1c11.4-0.6,19.3-0.6,25.6-0.6c5.7,0,8.5,0,9.1-0.6
			c0.6,0.6,1.1,0.6,1.7,0.6c1.1,0,1.7,0,2.3-0.6c-1.7-0.6-4-0.6-5.7,0C405.3,260,404.2,260,403.1,259.4z"/>
	</g>
	<g>
		<path d="M518.5,502.9v1.3c0,1.6-0.4,3.1-1.1,4.5c-0.7,1.4-1.5,2.8-2.3,4.1c-0.6,1.6-1.5,3.9-2.8,7c-1.4,2-3.3,5-5.8,9.2
			c-3.7,7.5-7.5,16.3-11.2,26.3c-0.4,0.7-0.9,1.7-1.5,3c-2.4,4.6-5.7,11.5-9.9,20.7c-0.5,1.1-0.7,2.2-0.7,3.4
			c-2.6,1-4.5,3.9-5.9,8.7l-1,0.6l-1.6-3.3c0-0.8-0.5-2-1.5-3.8c-1-1.7-1.5-3-1.6-3.8c-1.3-6-3.5-14.9-6.5-26.6
			c-1.3-6-3.1-13.3-5.5-21.9h-0.3c-0.1,0.5-0.1,1-0.1,1.5c0.1,0.5,0.2,1,0.4,1.6c-0.9-3.5-2.4-8.7-4.6-15.7
			c-0.3-0.7-1.5-3.2-3.6-7.5c-1.4-2.7-2.2-5.4-2.4-8.3c-1-1.2-1.9-1.9-2.8-2.1v-0.9l0.1-0.3c0.1,0.2,0.4,0.4,0.9,0.7
			c0.3-0.6,0.8-1.4,1.5-2.5h0.6c0-0.2,0-0.4-0.1-0.6c0-0.1,0.6-0.7,1.8-1.9l0.3,0.9c0-0.3,0-0.5,0.1-0.7l0.7-0.9
			c0.2-0.1,0.3-0.2,0.4-0.3h-0.1c0.2-0.5,0.5-0.9,0.9-1.2v-0.3l0.4,0.1c0.2-0.2,0.5-0.5,1-0.9l1.6,1.2l0.1-0.6l0.3-0.4l0.3-0.1
			c0.8,0.2,2.6,0.6,5.3,1.2c0.2-0.1,0.7-0.3,1.6-0.7l4.9,1.5c-0.1,1.4,0.4,3.4,1.6,6.1c0.2,0.6,0.3,2.7,0.3,6.2
			c0,0.5-0.1,1.2-0.4,2.1c-0.2,0.9-0.4,1.6-0.4,2.1c0,0.2,0.1,0.5,0.2,1c0.1,0.4,0.2,0.8,0.2,1.1c-0.6,1.3-0.9,3.2-0.9,5.8
			c0,0.9,0,2.1,0.1,3.7c0.1,1.9,0.2,3.2,0.3,3.8c-0.1,5.8,0.2,14.6,0.9,26.2c0.3,2.3,1.3,6.9,3,13.8c0.5,2.8,1.5,6.8,3,12.1
			c1.2-3.3,3.1-8.3,5.6-15.2c0.7-2.2,1.5-5.5,2.4-9.9c0.9-4.4,1.7-7.6,2.4-9.6c4.2-13.2,6.4-23.7,6.4-31.5c0-2.1-0.8-5.9-2.4-11.5
			l0.1-0.7c-0.1-0.5-0.1-0.9-0.1-1.3c0-0.4,0.1-1.1,0.4-2.2c0-0.6,0.1-1.5,0.4-2.7c0.2-0.5,1.3-1.2,3.2-2.2c1.9-1,3.1-1.8,3.6-2.4
			c0.8,0.2,2.2,1.6,4.3,4.3c2,2.3,4.6,3.4,7.8,3.4c0.4,0,1-0.1,1.8-0.3c0.8-0.2,1.5-0.3,2-0.3c1.2,0,2.1,0.7,2.7,2.1
			C518.4,500.1,518.6,501.5,518.5,502.9z"/>
		<path d="M608.6,534.5c-0.9,0.5-1.9,1.5-3.1,3c-1.8-0.8-2.6-1.2-2.5-1.2c-1.1,1.4-2.4,2.5-4,3.4c-0.8,0.8-2,1.7-3.7,2.7
			c-0.6,0.2-5.3,0.3-14.1,0.3c-1.4,0-4.9,0.3-10.5,0.9c-6,0.6-9.2,1-9.6,1.3c-1.1,0.9-1.8,1.9-2.1,3.1l-1.5-0.1
			c-0.7,4.9-2.2,12.2-4.4,21.8c3.8,0,9.6,0.2,17.4,0.6c7.7,0.4,13.5,0.6,17.4,0.6c4.2,0,8.2-2.1,11.8-6.2s5.5-8.3,5.5-12.6
			c0-3.3-0.9-6.1-2.7-8.4c1,0.3,2.2,0.8,3.6,1.5c0.4,0.7,0.9,1.8,1.6,3.3c0,1.1-0.1,2.6-0.3,4.6c-0.7,3.8-1,7.1-1,9.8l-0.1,0.3
			l0.1,0.6c0.1,0.4,0.3,0.7,0.7,1c-3.3,6.5-5.3,12.7-6.2,18.5c-1.4,1.2-2.8,2.4-4.1,3.7c-2.4,2.1-5,2.9-8,2.5
			c-7.8-1-12.9-1.4-15.4-1.3c-0.6,0-1.7-0.3-3.4-0.8c-1.7-0.5-3-0.8-4-0.8h-7.4c-3.9,0-6.8,0.4-8.4,1.3c-1.1,0.5-2.2,1.5-3.3,3.1
			c-1.1,1.6-2.3,2.8-3.7,3.6l-1.3-0.7c-1.8-2.9-2.7-6.8-2.7-11.7c-0.6-0.4-0.9-1.1-1-2.2c-0.5-0.7-0.7-1.3-0.7-1.9
			c0-1,0.2-2.4,0.7-4.3c0.4-1.9,0.7-3.3,0.7-4.1c0.7-1.9,2.5-3.7,5.5-5.5l6.2-50.8c-0.7-0.6-1.3-1.7-1.9-3.3
			c-0.6-1.6-1.2-2.6-1.8-3.1l-0.1-1.9c0-2,0.6-4.1,1.8-6.4c1.2-2.3,2.8-3.5,4.7-3.5c1.3,0,2.6,1.4,4,4.1c0.1-0.4,0.1-0.7,0.1-1
			c0-0.4-0.2-1-0.5-1.8c-0.3-0.8-0.5-1.5-0.5-1.8c0.2-0.6,1.1-1.3,2.6-2.2c1.5-0.9,2.6-1.3,3.3-1.3c0.3,0,1.3,0.2,3.1,0.7
			c10-1.3,17.6-1.9,22.8-1.9c4.7,0,7.9,0.2,9.6,0.6c3.6,0.8,6.1,2.6,7.5,5.5c-1.4,2.9-2.8,4.8-4.3,5.9c-0.7,0.6-2,1.3-4,2.2
			c-2,0.9-3.3,1.3-4,1.3c-1,0-2.4-0.1-4.2-0.3c-1.8-0.2-3.2-0.3-4.1-0.3c-2.3,0-5.6,0.4-9.9,1.1s-7.6,1.1-9.8,1.1
			c-2.7,4.4-4,11-4,19.7c0,0.4,0.1,0.8,0.3,1.2l0.4-0.1c0.2-0.3,0.4-0.5,0.7-0.7l0.6,0.3c-0.2,0.8-0.4,2-0.6,3.7
			c13.8-1.7,23.9-2.5,30.2-2.5c1.9,0,4.6,0.8,8.3,2.4C604.1,531.8,606.6,533.2,608.6,534.5z"/>
		<path d="M699.2,590.9c-0.7,0.8-1.6,2.2-2.8,4.1c-8.5-1.7-24.6-12.2-48.4-31.5c-0.8,0-1.6,0.2-2.4,0.7c-0.8,1.1-1.5,3.7-2.2,7.8
			c-0.6,3.7-0.9,6.5-0.9,8.4c0,4.1,0.9,7.5,2.8,10.1c0.8-0.7,1.9-2.2,3.3-4.4h1v0.4c0.1,1.3-0.5,2.5-1.8,3.8c-1.3,1.2-2.6,1.8-4,1.8
			c-1.5,0-3-1.3-4.4-4c-1.9-3.6-2.9-5.4-3-5.5l-0.6,0.4c0.4,3.4,1.8,6.3,4.3,8.7c-6.1-6.2-9.2-17.2-9.2-33c0-8.2,1.4-16.4,4.3-24.6
			c2.6-7.4,5.1-14.8,7.7-22.3c1-0.8,1.9-1.9,2.8-3.4c1.4-2.3,2.2-3.6,2.4-3.8c0.9-1.2,3.3-3.7,7.3-7.7c3.9-3.9,6.3-6.1,7.1-6.5
			l0.1-1l0.3,0.1c1.6,0,2.5,0,2.7-0.1l0.4,0.4c0.1,0.4,0.2,0.7,0.3,1c0.6-1,1.3-1.4,2.2-1.3h0.4l0.7,0.6c0.8,0.4,2.2,0.6,4.3,0.6
			c1.3,0,3.2-0.4,5.7-1.2c2.5-0.8,4.5-1.2,5.8-1.2c3.7,0,5.5,1.5,5.3,4.4v0.6c-2,1.1-3.1,2-3.4,2.7c-0.4,1.3-1,3.3-1.9,5.9
			c-0.2,0.5-1.1,2.1-2.7,4.7c-1.2,1.9-1.8,3.6-1.8,5c0,1.2,0.1,3,0.3,5.3c0.2,2.4,0.3,4.1,0.3,5.3c0,7,0.1,11.1,0.3,12.1
			c1.7,9.5,5,21.5,9.9,36.1c0.4,1.5,1.7,4.8,4,9.9C697.6,584.5,698.7,587.9,699.2,590.9z M688,582.9c-2.7-6.7-6.6-16.8-11.7-30.2
			c-5.9,1.8-15,3.4-27.2,4.7c1.4,4.5,7,9.7,16.9,15.4C674,577.6,681.4,581,688,582.9z M672.3,541.8c-0.8-4-2.2-9.5-4.3-16.3
			c-0.6,0-1.4,0.2-2.4,0.6c-1,0.4-1.8,0.6-2.4,0.6h-0.4c-0.4-0.4-1-1-1.8-1.9c-1.4,0.5-2.8,2.5-4.1,6.1c0.4,0.5,0.6,1,0.6,1.5
			c0,0.4-0.1,0.8-0.4,1.3l-0.1-0.9c-2.1,2.1-3.5,4.8-4.1,8.3l0.4,0.1h1.8l0.6,0.3c7-0.5,10-0.7,9-0.7c0.7,0,1.8,0.2,3.3,0.6
			c1.5,0.4,2.6,0.5,3.4,0.4H672.3z"/>
		<path d="M791.5,496.7c-2.7,3-5.4,4.9-8.3,5.9c-1.6,0.6-4.2,1.1-7.9,1.4c-3.7,0.3-6.8,0.9-9.2,1.7c-0.2,0.3-1,3-2.5,8.1
			c-4.2,14.8-6.8,26.9-7.7,36.4c0,0.5-0.3,9-0.9,25.5c-0.4,3.1-0.9,7.7-1.5,13.9c-0.7,0.3-1.8,1-3.3,2.1c-0.4-0.7-1.2-1.6-2.4-2.8
			v-0.3c-0.2,0-0.2-0.2,0-0.7l-0.4-0.6c0.2-0.4,0.3-2.2,0.3-5.5c0-1.6-0.2-3.9-0.7-7c-0.5-3.1-0.7-5.3-0.7-6.8c0-2,0.2-3.9,0.6-5.9
			c-0.2-0.6-0.4-1.2-0.6-1.9c0-7.1,1.1-19.9,3.4-38.5c0.8-6.9,1.2-10.6,1.2-11c0-0.3-0.4-1.5-1.2-3.7c-0.7-0.2-1.4-0.3-2.1-0.3
			c-1.9,0-3.6,0.8-5.3,2.4c-1.6,1.6-3.1,3.1-4.5,4.6c-0.9,0.9-3.5,2.5-7.7,5c-4.2,2.4-6.8,3.6-7.5,3.6c-1.3,0-2.4-0.5-3.3-1.6
			c-0.9-1.1-1.3-2.3-1.3-3.6c0-2.7,0.6-5.6,1.7-8.9c1.1-3.3,1.7-5.5,1.7-6.8c0-0.8-0.1-1.9-0.3-3.3c-0.2-1.4-0.3-2.5-0.3-3.3
			c0-1.1,1.1-2,3.3-2.8c1.8-0.6,3.4-0.9,4.9-0.9c0.9,0,2,0.4,3.3,1.3c1.3,0.8,2.6,1.3,3.9,1.3c2.6,0,6.6-0.3,12-0.9
			s9.5-0.9,12.3-0.9C772.7,491.8,783.1,493.4,791.5,496.7z"/>
	</g>
</g>
</svg>
