<?xml version="1.0" encoding="utf-8"?>
<!-- Generator: Adobe Illustrator 18.0.0, SVG Export Plug-In . SVG Version: 6.00 Build 0)  -->
<!DOCTYPE svg PUBLIC "-//W3C//DTD SVG 1.1//EN" "http://www.w3.org/Graphics/SVG/1.1/DTD/svg11.dtd">
<svg version="1.1" id="レイヤー_1" xmlns="http://www.w3.org/2000/svg" xmlns:xlink="http://www.w3.org/1999/xlink" x="0px"
	 y="0px" width="203.8" height="75.6" viewBox="96.3 35.2 207.4 79.6" enable-background="new 96.3 35.2 207.4 79.6" xml:space="preserve">
<rect x="98.5" y="36.9" opacity="0.4" fill="#FEFEFE" width="203.8" height="75.6"/>
<path fill="#231815" d="M96.3,35.2v79.6h207.4V35.2H96.3z M300.1,111.2H99.9V38.8h200.2V111.2z"/>
<rect x="144.5" y="-20" fill="none" width="121.3" height="34.3"/>
<text transform="matrix(1 0 0 1 163.322 7.4401)" font-family="'OpenSans-Bold'" font-size="32">TITLE</text>
<g>
	<path d="M143,77.7v8.8h-4.8V63.6h6.7c3.1,0,5.4,0.6,6.9,1.7c1.5,1.1,2.2,2.8,2.2,5.1c0,1.3-0.4,2.5-1.1,3.6c-0.7,1-1.8,1.9-3.1,2.5
		c3.4,5.1,5.7,8.5,6.7,10h-5.4l-5.5-8.8H143z M143,73.7h1.6c1.5,0,2.7-0.3,3.4-0.8c0.7-0.5,1.1-1.3,1.1-2.4c0-1.1-0.4-1.9-1.1-2.3
		c-0.7-0.5-1.9-0.7-3.5-0.7H143V73.7z"/>
	<path d="M172.5,86.4h-13.2V63.6h13.2v4h-8.3v5h7.7v4h-7.7v5.9h8.3V86.4z"/>
	<path d="M177.2,86.4V63.6h4.8v18.8h9.3v4H177.2z"/>
	<path d="M216,75c0,3.8-0.9,6.7-2.8,8.7s-4.6,3-8.1,3s-6.2-1-8.1-3s-2.8-4.9-2.8-8.8c0-3.8,0.9-6.7,2.8-8.7c1.9-2,4.6-3,8.1-3
		c3.5,0,6.2,1,8.1,3C215.1,68.3,216,71.2,216,75z M199.4,75c0,2.6,0.5,4.5,1.5,5.8c1,1.3,2.4,1.9,4.3,1.9c3.9,0,5.8-2.6,5.8-7.7
		c0-5.1-1.9-7.7-5.8-7.7c-1.9,0-3.4,0.6-4.4,1.9C199.9,70.5,199.4,72.4,199.4,75z"/>
	<path d="M234.8,86.4l-1.7-5.4h-8.3l-1.7,5.4h-5.2l8.1-22.9h5.9l8.1,22.9H234.8z M231.9,76.9c-1.5-4.9-2.4-7.7-2.6-8.4
		c-0.2-0.6-0.3-1.2-0.4-1.5c-0.3,1.3-1.3,4.6-3,9.9H231.9z"/>
	<path d="M261.8,74.8c0,3.8-1.1,6.6-3.2,8.6s-5.2,3-9.3,3h-6.5V63.6h7.2c3.7,0,6.6,1,8.7,3S261.8,71.3,261.8,74.8z M256.8,74.9
		c0-4.9-2.2-7.4-6.5-7.4h-2.6v14.9h2.1C254.4,82.4,256.8,79.9,256.8,74.9z"/>
</g>
</svg>
