<?xml version="1.0" encoding="utf-8"?>
<!-- Generator: Adobe Illustrator 18.0.0, SVG Export Plug-In . SVG Version: 6.00 Build 0)  -->
<!DOCTYPE svg PUBLIC "-//W3C//DTD SVG 1.1//EN" "http://www.w3.org/Graphics/SVG/1.1/DTD/svg11.dtd">
<svg version="1.1" id="レイヤー_1" xmlns="http://www.w3.org/2000/svg" xmlns:xlink="http://www.w3.org/1999/xlink" x="0px"
	 y="0px" viewBox="0 0 841.9 595.3" enable-background="new 0 0 841.9 595.3" xml:space="preserve">
<g>
	<g>
		<path fill="#231815" d="M51.8,260.1c0,6.3-2.3,11.3-6.9,14.9c-4.6,3.6-10.9,5.4-18.9,5.4c-8,0-14.6-1.2-19.7-3.7v-11
			c3.2,1.5,6.7,2.7,10.3,3.6c3.6,0.9,7,1.3,10.2,1.3c4.6,0,8-0.9,10.2-2.6c2.2-1.7,3.3-4.1,3.3-7c0-2.7-1-4.9-3-6.8
			c-2-1.8-6.2-4-12.4-6.6c-6.5-2.6-11.1-5.6-13.7-9c-2.7-3.4-4-7.4-4-12.2c0-5.9,2.1-10.6,6.3-14c4.2-3.4,9.9-5.1,17-5.1
			c6.8,0,13.6,1.5,20.3,4.5l-3.7,9.5c-6.3-2.7-12-4-16.9-4c-3.8,0-6.6,0.8-8.6,2.5c-1.9,1.6-2.9,3.8-2.9,6.5c0,1.8,0.4,3.4,1.2,4.7
			c0.8,1.3,2.1,2.6,3.8,3.7c1.8,1.2,5,2.7,9.6,4.6c5.2,2.2,9,4.2,11.5,6.1c2.4,1.9,4.2,4,5.3,6.4C51.2,254.1,51.8,256.9,51.8,260.1z
			"/>
		<path fill="#231815" d="M90.1,279.4H78.5v-61.1H57.6v-10H111v10H90.1V279.4z"/>
		<path fill="#231815" d="M165.9,279.4l-7.1-19.7h-27.2l-7,19.7h-12.2l26.6-71.3h12.6l26.6,71.3H165.9z M155.8,249.6l-6.7-19.3
			c-0.5-1.3-1.2-3.3-2-6.1c-0.9-2.8-1.5-4.8-1.8-6.1c-0.9,4-2.2,8.3-3.8,13.1l-6.4,18.5H155.8z"/>
		<path fill="#231815" d="M212.2,279.4h-11.6v-61.1h-20.9v-10h53.4v10h-20.9V279.4z"/>
		<path fill="#231815" d="M299.7,208.3v46c0,5.2-1.1,9.8-3.4,13.8c-2.3,3.9-5.5,7-9.8,9.1c-4.3,2.1-9.4,3.2-15.3,3.2
			c-8.8,0-15.7-2.3-20.6-7s-7.3-11.1-7.3-19.2v-45.8H255v45c0,5.9,1.4,10.2,4.1,13s6.9,4.2,12.5,4.2c11,0,16.4-5.7,16.4-17.3v-44.9
			H299.7z"/>
		<path fill="#231815" d="M358.8,260.1c0,6.3-2.3,11.3-6.9,14.9c-4.6,3.6-10.9,5.4-18.9,5.4c-8,0-14.6-1.2-19.7-3.7v-11
			c3.2,1.5,6.7,2.7,10.3,3.6c3.6,0.9,7,1.3,10.2,1.3c4.6,0,8-0.9,10.2-2.6c2.2-1.7,3.3-4.1,3.3-7c0-2.7-1-4.9-3-6.8
			c-2-1.8-6.2-4-12.4-6.6c-6.5-2.6-11.1-5.6-13.7-9c-2.7-3.4-4-7.4-4-12.2c0-5.9,2.1-10.6,6.3-14c4.2-3.4,9.9-5.1,17-5.1
			c6.8,0,13.6,1.5,20.3,4.5l-3.7,9.5c-6.3-2.7-12-4-16.9-4c-3.8,0-6.6,0.8-8.6,2.5c-1.9,1.6-2.9,3.8-2.9,6.5c0,1.8,0.4,3.4,1.2,4.7
			c0.8,1.3,2.1,2.6,3.8,3.7c1.8,1.2,5,2.7,9.6,4.6c5.2,2.2,9,4.2,11.5,6.1c2.4,1.9,4.2,4,5.3,6.4
			C358.3,254.1,358.8,256.9,358.8,260.1z"/>
	</g>
	<g>
		<path fill="#231815" d="M10.8,386.9v-71.1h11.6v71.1H10.8z"/>
		<path fill="#231815" d="M99,350.7c0,11.7-3.3,20.7-9.8,26.9c-6.5,6.2-15.9,9.3-28.1,9.3H41.2v-71.1h22c11.3,0,20.1,3,26.4,9.1
			C95.8,331.1,99,339.7,99,350.7z M86.7,351.1c0-17-8-25.5-23.9-25.5H52.8v51.6h8.3C78.2,377.2,86.7,368.5,86.7,351.1z"/>
	</g>
	<g>
		<path fill="#231815" d="M437.1,231.8c0-4.9,2.4-7.3,7.2-7.3c2.4,0,4.2,0.6,5.4,1.9c1.2,1.3,1.8,3.1,1.8,5.4c0,2.3-0.6,4.1-1.9,5.5
			c-1.3,1.3-3,2-5.4,2s-4.1-0.7-5.3-2C437.7,235.9,437.1,234.1,437.1,231.8z M437.1,273.3c0-2.4,0.6-4.2,1.8-5.4
			c1.2-1.3,3-1.9,5.3-1.9c2.4,0,4.2,0.7,5.4,2c1.2,1.3,1.8,3.1,1.8,5.4c0,2.3-0.6,4.1-1.9,5.5c-1.3,1.3-3,2-5.4,2s-4.1-0.7-5.3-2
			C437.7,277.5,437.1,275.6,437.1,273.3z"/>
	</g>
	<g>
		<path fill="#231815" d="M436.4,338.4c0-4.9,2.4-7.3,7.2-7.3c2.4,0,4.2,0.6,5.4,1.9c1.2,1.3,1.8,3.1,1.8,5.4s-0.6,4.1-1.9,5.5
			c-1.3,1.3-3,2-5.4,2s-4.1-0.7-5.3-2C437,342.5,436.4,340.7,436.4,338.4z M436.4,379.9c0-2.4,0.6-4.2,1.8-5.4
			c1.2-1.3,3-1.9,5.3-1.9c2.4,0,4.2,0.7,5.4,2c1.2,1.3,1.8,3.1,1.8,5.4c0,2.3-0.6,4.1-1.9,5.5c-1.3,1.3-3,2-5.4,2s-4.1-0.7-5.3-2
			C437,384,436.4,382.2,436.4,379.9z"/>
	</g>
	<g>
		<path fill="#231815" d="M535.7,217.3c-6.7,0-11.9,2.4-15.7,7.1c-3.8,4.7-5.7,11.3-5.7,19.6c0,8.7,1.8,15.3,5.5,19.8
			c3.7,4.5,9,6.7,16,6.7c3,0,5.9-0.3,8.8-0.9c2.8-0.6,5.7-1.4,8.8-2.3v10c-5.6,2.1-11.9,3.2-19,3.2c-10.4,0-18.4-3.2-24-9.5
			c-5.6-6.3-8.4-15.3-8.4-27c0-7.4,1.3-13.9,4.1-19.4c2.7-5.5,6.6-9.8,11.7-12.7c5.1-2.9,11.1-4.4,18-4.4c7.3,0,14,1.5,20.1,4.6
			l-4.2,9.7c-2.4-1.1-4.9-2.1-7.6-3C541.5,217.7,538.7,217.3,535.7,217.3z"/>
		<path fill="#231815" d="M568.6,279.4v-71.1h11.6v61.1h30.1v10H568.6z"/>
		<path fill="#231815" d="M622.5,279.4v-71.1h11.6v71.1H622.5z"/>
		<path fill="#231815" d="M693.1,279.4h-40.2v-71.1h40.2v9.8h-28.6v19.3h26.8v9.7h-26.8v22.3h28.6V279.4z"/>
		<path fill="#231815" d="M767.7,279.4h-14.2l-34.9-56.6h-0.4l0.2,3.2c0.5,6,0.7,11.5,0.7,16.5v36.9h-10.5v-71.1h14.1l34.8,56.3h0.3
			c-0.1-0.7-0.2-3.5-0.4-8.1c-0.2-4.7-0.3-8.3-0.3-11v-37.2h10.6V279.4z"/>
		<path fill="#231815" d="M811,279.4h-11.6v-61.1h-20.9v-10h53.4v10H811V279.4z"/>
	</g>
	<g>
		<path fill="#231815" d="M504.1,315.9h21.1c9.8,0,16.9,1.4,21.2,4.3c4.4,2.9,6.5,7.4,6.5,13.5c0,4.1-1.1,7.6-3.2,10.4
			c-2.1,2.8-5.2,4.5-9.2,5.2v0.5c5,0.9,8.7,2.8,11,5.6c2.3,2.8,3.5,6.5,3.5,11.3c0,6.4-2.2,11.4-6.7,15c-4.5,3.6-10.7,5.4-18.6,5.4
			h-25.7V315.9z M515.7,345.2h11.2c4.9,0,8.4-0.8,10.6-2.3c2.2-1.5,3.4-4.2,3.4-7.8c0-3.3-1.2-5.8-3.6-7.2
			c-2.4-1.5-6.2-2.2-11.5-2.2h-10.1V345.2z M515.7,354.7v22.5h12.3c4.9,0,8.5-0.9,11-2.8c2.5-1.9,3.7-4.8,3.7-8.8
			c0-3.7-1.3-6.4-3.8-8.2c-2.5-1.8-6.4-2.7-11.5-2.7H515.7z"/>
		<path fill="#231815" d="M581.3,386.9h-11.5v-71.1h40.1v9.8h-28.6v22.2h26.8v9.9h-26.8V386.9z"/>
		<path fill="#231815" d="M622.8,315.9h21.1c9.8,0,16.9,1.4,21.2,4.3c4.4,2.9,6.5,7.4,6.5,13.5c0,4.1-1.1,7.6-3.2,10.4
			c-2.1,2.8-5.2,4.5-9.2,5.2v0.5c5,0.9,8.7,2.8,11,5.6c2.3,2.8,3.5,6.5,3.5,11.3c0,6.4-2.2,11.4-6.7,15c-4.5,3.6-10.7,5.4-18.6,5.4
			h-25.7V315.9z M634.4,345.2h11.2c4.9,0,8.4-0.8,10.6-2.3s3.4-4.2,3.4-7.8c0-3.3-1.2-5.8-3.6-7.2c-2.4-1.5-6.2-2.2-11.5-2.2h-10.1
			V345.2z M634.4,354.7v22.5h12.3c4.9,0,8.5-0.9,11-2.8s3.7-4.8,3.7-8.8c0-3.7-1.3-6.4-3.8-8.2c-2.5-1.8-6.4-2.7-11.5-2.7H634.4z"/>
		<path fill="#231815" d="M731.7,386.9h-48.2v-8.7l18.3-18.4c5.4-5.5,9-9.5,10.8-11.8s3.1-4.5,3.9-6.5s1.2-4.2,1.2-6.6
			c0-3.2-1-5.7-2.9-7.6c-1.9-1.8-4.6-2.8-8-2.8c-2.7,0-5.4,0.5-7.9,1.5c-2.5,1-5.5,2.8-8.8,5.4l-6.2-7.5c4-3.3,7.8-5.7,11.5-7.1
			c3.7-1.4,7.7-2.1,11.9-2.1c6.6,0,11.9,1.7,15.9,5.2c4,3.5,6,8.1,6,13.9c0,3.2-0.6,6.3-1.7,9.1c-1.2,2.9-2.9,5.9-5.3,8.9
			c-2.4,3.1-6.3,7.2-11.9,12.4l-12.3,12v0.5h33.7V386.9z"/>
		<path fill="#231815" d="M785.8,332.2c0,4.5-1.3,8.3-3.9,11.3c-2.6,3-6.3,5-11.1,6.1v0.4c5.7,0.7,10,2.5,12.8,5.3
			c2.9,2.8,4.3,6.6,4.3,11.3c0,6.8-2.4,12.1-7.2,15.8c-4.8,3.7-11.7,5.6-20.6,5.6c-7.9,0-14.5-1.3-19.9-3.8v-10.2
			c3,1.5,6.2,2.6,9.6,3.5c3.4,0.8,6.6,1.2,9.7,1.2c5.5,0,9.6-1,12.3-3.1c2.7-2,4.1-5.2,4.1-9.5c0-3.8-1.5-6.6-4.5-8.4
			c-3-1.8-7.7-2.7-14.2-2.7H751v-9.3h6.3c11.3,0,17-3.9,17-11.8c0-3-1-5.4-3-7c-2-1.7-4.9-2.5-8.8-2.5c-2.7,0-5.3,0.4-7.8,1.1
			c-2.5,0.8-5.4,2.2-8.8,4.4l-5.6-8c6.5-4.8,14.1-7.2,22.7-7.2c7.2,0,12.7,1.5,16.8,4.6S785.8,326.8,785.8,332.2z"/>
	</g>
</g>
</svg>
