<?xml version="1.0" encoding="utf-8"?>
<!-- Generator: Adobe Illustrator 18.0.0, SVG Export Plug-In . SVG Version: 6.00 Build 0)  -->
<!DOCTYPE svg PUBLIC "-//W3C//DTD SVG 1.1//EN" "http://www.w3.org/Graphics/SVG/1.1/DTD/svg11.dtd">
<svg version="1.1" id="レイヤー_1" xmlns="http://www.w3.org/2000/svg" xmlns:xlink="http://www.w3.org/1999/xlink" x="0px"
	 y="0px" width="203.8" height="75.6" viewBox="96.3 35.2 207.4 79.6" enable-background="new 96.3 35.2 207.4 79.6" xml:space="preserve">
<rect x="98.5" y="36.9" opacity="0.4" fill="#FEFEFE" width="203.8" height="75.6"/>
<path fill="#231815" d="M96.3,35.2v79.6h207.4V35.2H96.3z M300.1,111.2H99.9V38.8h200.2V111.2z"/>
<rect x="144.5" y="-20" fill="none" width="121.3" height="34.3"/>
<text transform="matrix(1 0 0 1 163.322 7.4401)" font-family="'OpenSans-Bold'" font-size="32">TITLE</text>
<g>
	<path d="M170.5,86.4h-4.8V67.6h-6.2v-4h17.3v4h-6.2V86.4z"/>
	<path d="M180.2,86.4V63.6h4.8v22.8H180.2z"/>
	<path d="M199.6,86.4h-4.8V67.6h-6.2v-4h17.3v4h-6.2V86.4z"/>
	<path d="M209.3,86.4V63.6h4.8v18.8h9.3v4H209.3z"/>
	<path d="M240.6,86.4h-13.2V63.6h13.2v4h-8.3v5h7.7v4h-7.7v5.9h8.3V86.4z"/>
</g>
</svg>
