<?xml version="1.0" encoding="utf-8"?>
<!-- Generator: Adobe Illustrator 18.0.0, SVG Export Plug-In . SVG Version: 6.00 Build 0)  -->
<!DOCTYPE svg PUBLIC "-//W3C//DTD SVG 1.1//EN" "http://www.w3.org/Graphics/SVG/1.1/DTD/svg11.dtd">
<svg version="1.1" id="レイヤー_1" xmlns="http://www.w3.org/2000/svg" xmlns:xlink="http://www.w3.org/1999/xlink" x="0px"
	 y="0px" viewBox="0 0 841.9 595.3" enable-background="new 0 0 841.9 595.3" xml:space="preserve">
<path fill="#F7F7F7" d="M656.6,579.1H184c-24.2,0-44-19.8-44-44V60c0-24.2,19.8-44,44-44h472.6c24.2,0,44,19.8,44,44v475.1
	C700.6,559.3,680.8,579.1,656.6,579.1z"/>
<g>
	<path fill="#231815" d="M656.8,342.3H184c-24.2,0-44-19.8-44-44l0,0c0-24.2,19.8-44,44-44h472.8c24.2,0,44,19.8,44,44l0,0
		C700.8,322.5,681,342.3,656.8,342.3z"/>
	<path fill="#231815" d="M656.8,104H184c-24.2,0-44-19.8-44-44l0,0c0-24.2,19.8-44,44-44h472.8c24.2,0,44,19.8,44,44l0,0
		C700.8,84.2,681,104,656.8,104z"/>
	<path fill="#231815" d="M656.8,580.7H184c-24.2,0-44-19.8-44-44l0,0c0-24.2,19.8-44,44-44h472.8c24.2,0,44,19.8,44,44l0,0
		C700.8,560.9,681,580.7,656.8,580.7z"/>
</g>
</svg>
