<?xml version="1.0" encoding="utf-8"?>
<!-- Generator: Adobe Illustrator 18.0.0, SVG Export Plug-In . SVG Version: 6.00 Build 0)  -->
<!DOCTYPE svg PUBLIC "-//W3C//DTD SVG 1.1//EN" "http://www.w3.org/Graphics/SVG/1.1/DTD/svg11.dtd">
<svg version="1.1" id="レイヤー_1" xmlns="http://www.w3.org/2000/svg" xmlns:xlink="http://www.w3.org/1999/xlink" x="0px"
	 y="0px" width="124px" height="60px" viewBox="0 0 841.9 595.3" enable-background="new 0 0 841.9 595.3" xml:space="preserve">
<g>
	<g>
		<path fill="#231815" d="M208.5,117.5l0.3-0.3h0.4c0-0.4,0.4-0.7,1.1-0.4v-0.3c0.4,0.3,0.7,0.3,1.4,0.7h0.4c2.5,2.8,4.9,6,7.4,8.4
			c3.2,5.3,3.5,9.8,1.1,15.1c-0.7,1.1-1.4,2.1-2.1,3.2c-1.4,2.1-2.8,4.6-4.2,6.7c-4.2,4.6-8.8,8.8-13,13c0.7-0.4,1.4-0.4,1.8-1.4
			h0.4c-0.4,1.1-0.7,2.1-1.4,2.5c2.8,1.1,6.3,1.4,9.5,1.4c1.1-0.4,1.8-0.7,2.5-1.4c2.1-1.1,4.2-1.4,7.4-1.4
			c4.2,2.1,8.1,4.6,10.9,7.4c2.1,2.1,4.2,4.6,6.7,7c3.2,1.1,5.3,3.2,6,6c-0.4,0.4-0.4,0.7,0,1.1c0,1.1,0.7,2.1,1.8,2.5
			c0.7,0.3,1.8,0.7,2.1,1.8c0.4-0.3,0.7-0.7,1.8-0.7c-0.4,1.1-0.4,1.4,0.7,1.4c2.5,1.8,3.9,3.5,4.2,6.3c-0.4,0.3-0.7,0.3-1.1,0.7
			c0,0.7,0,1.1,0.4,1.4c-1.1,0-1.8,0-2.1,0.4c0.4,0.7,0.7,1.4,1.1,2.1c-0.7,0.7-1.1,0.7-1.4,0.4c-0.7,0.3-1.4,0.7-2.5,0.7
			c0.3,1.1,0.7,1.8,0.7,2.5h-2.8c0.4,0.3,0.7,0.7,1.1,1.1c-0.3,0.4-0.3,0.7-0.7,0.4c-0.4,0-0.7,0-0.7-0.4c-1.4,0-2.5,0-3.5,0.4
			c-1.8,0.7-3.5,1.4-5.3,1.8c-1.8,1.1-3.2,1.4-4.9,1.4c-0.4,0.3-1.1,0.7-1.4,0.7c-6.3,3.9-12.3,8.8-17.2,14.1
			c3.9-2.8,7.4-6.7,10.6-10.9c-1.1-1.1-1.8-1.8-2.8-2.8c-0.3,0.7-1.1,1.1-1.4,0.7c-0.3,0-0.3,0-0.3-0.4c-1.8,1.1-3.5,1.8-5.6,1.8
			c-0.4,0.4-0.4,0.4-0.4,0.7c0-0.3,0-1.1-0.3-1.4c-0.4,0.3-0.4,0.3-0.7,0.3v-0.3c-1.8,1.8-4.2,2.1-6.7,1.8c-3.2,1.8-6,2.8-9.2,3.2
			c-9.2,0.3-16.9,2.5-23.6,6.7c3.2,1.1,6,1.8,9.2,2.1c0.7,0.3,1.8,0.3,3.2-0.4c0.4-0.3,1.1-0.3,1.1-0.3c5.3,2.1,9.8,4.9,14.4,8.8
			c2.8,2.5,5.6,4.9,8.4,7.4c3.2,3.2,5.6,6.3,7.7,9.5c1.8,2.1,1.8,4.2,0.7,6c-0.4,1.1-0.7,2.1-0.4,3.2c-0.7-0.3-1.4-0.3-2.1-0.7
			c-0.4,0.4-0.7,0.7-1.1,0.7v-0.3c-1.1,1.4-2.1,1.8-3.9,1.4c-0.4,0.4-0.4,1.1,0,1.4c1.1,0.4,1.4,1.1,0.7,2.1
			c-1.1-0.4-2.5-0.7-3.5-0.7c-1.1-0.4-2.1-1.1-2.5-2.1c-3.2,0.7-5.6,1.1-8.8,1.1c-6.7,2.1-13,3.9-19.7,4.6c-1.4,0.4-3.2,0.7-4.6,0.4
			c-1.1,0-2.1,0.7-2.8,1.8c-0.7,2.8-0.4,5.6,1.4,8.1c2.8,0,5.6-0.3,8.4-1.1c22.2-3.5,45.4-4.6,68.6-3.2c3.2,0.3,6.7,0.3,10.6,0.3
			c1.1,0.4,1.8,0,1.8-1.1c1.8-0.4,3.5-0.7,5.3-1.1c0,0.4,0,0.4,0.4,0.4c1.1-0.4,2.5-0.7,3.9-0.4c1.1,0.4,1.8,1.1,2.8,1.4
			c4.2,2.5,8.1,5.6,12,8.8c1.4,2.5,2.1,4.9,2.5,7.4c-0.4,1.8,0.4,3.9,1.4,5.6c-0.7,1.1-1.4,1.8-2.5,2.1c-1.8-0.3-3.5-0.3-4.6,0.7
			c-0.3,0.7-1.8,1.1-4.9,1.4c-2.8,0.3-7-1.1-11.6-3.9c-5.6-3.5-11.6-5.6-17.9-6c-1.4-0.3-2.8-0.3-3.9-0.7c-2.1,0-4.2,0-6-0.4
			c-0.4-0.3-0.4-0.3-0.4-0.7c-4.6-0.3-8.8-1.1-13-2.1c-1.1,0.3-2.1,0.7-3.2,0.3l0.4-0.3c-1.4-0.4-2.8-0.4-3.9,0
			c-1.4,0-3.2,0.3-4.2,0.7v-0.3c-1.1-0.3-2.1-0.3-2.8,0h-1.8c-1.8,0.3-3.9,0.7-6,0.7c-2.5,0.3-5.3,0.3-8.1,0.3
			c-1.4,0.4-2.8,0.7-3.9,0.7V286c-1.8,0-3.5,0.3-4.6,0.7c-0.4,0.3-0.4,0.3-0.4,0c0,0,0,0-0.3-0.4c-1.8,0.4-3.2,0.7-4.6,1.1
			c-0.4,0.3-0.4,0.3-0.4,0c-0.3,0.3-0.3,0.3-0.7,0c-0.4,0-1.1,0-1.8,0l0.4,0.3h-0.7v-0.3c-2.8,0.3-4.9,0.3-7.4,0.7
			c-0.7,0.4-0.7,0.4-0.4,0.7h-0.4c-0.7,3.9-1.1,7-0.7,10.6c1.1,0.4,2.5,1.1,3.5,1.8c0.7,0.7,1.8,1.1,3.5,1.4c2.5,2.1,4.9,4.2,7.4,6
			c1.8,1.4,3.2,3.5,3.9,5.3c1.1,1.8,1.1,3.2,0.4,4.2c0.4,0.7,0.4,1.4,0.7,1.8c-1.4,3.2-3.5,4.6-6.7,5.3c-1.1,1.8-2.8,2.8-4.9,3.2
			c1.8,1.1,3.9,1.4,6.3,1.8c0.3,0.4,0.7,0.7,1.1,0.7v-0.3c1.8,1.1,3.2,1.8,4.9,2.1v-0.4c-2.1-1.1-4.2-2.5-6-4.2
			c1.4,1.1,3.2,1.4,4.9,1.8c-0.4,0-0.7,0-0.7-0.3c0.7,0.7,1.8,1.1,3.5,1.4c-1.1-0.3-1.8-1.1-2.1-1.4c1.8,1.1,3.5,2.1,5.6,2.5
			c15.5,5.3,30.3,12.3,44,21.1c2.5,1.4,3.9,3.2,4.6,5.3c0.3,0,0.7,0,1.4,0.4c-0.4,0.4-0.7,0.7-0.7,1.1c0,0.4,0.4,0.4,0.7,0.4
			c-0.4,1.4-1.1,2.5-1.4,3.5c1.1,1.1,1.8,2.1,2.1,3.2c-2.5,1.1-4.6,1.8-6.3,2.8c-0.4,1.1-1.4,2.1-2.5,2.5c-3.5,3.9-7.4,5.6-12.7,5.3
			c-0.4,0.4-0.7,0.4-0.7,0c0,0,0,0-0.4,0v-0.4c-0.7,0.4-1.4,0.7-2.1,0.7c-1.1,0.3-1.8,0.3-2.1,0.7c0.4,0.4,0.4,0,0.4-0.4
			c-4.2,1.8-8.4,2.8-12.7,3.2c-1.1,0.4-1.8,0.7-2.8,0.7c0.4,0,0.4-0.3,0.4-0.7c-0.4,0-0.4,0-0.4-0.4c-3.2,1.1-6.7,1.4-10.2,1.1
			c-0.4,0.4-0.7,0.4-1.1,0c-1.1,0.4-1.4,0.7-1.8,1.1l-0.4-0.4c-3.2,0.4-6.7,0.7-10.2,1.1c-4.2,1.4-8.1,2.5-12.3,2.8
			c-2.5,0-4.9,0-7,0c0,3.9-0.4,7.7-1.1,11.3c-0.7,2.8-1.1,6-1.1,9.1c0,4.6-0.3,8.8-1.1,12.7c0,3.5,0,7,0.4,9.8
			c-0.7,1.8-1.1,3.2-1.4,4.9c0.7,5.6,1.1,10.9,1.1,16.2c1.1,2.5,1.1,4.9,0.7,7c0,0.7,0,1.4-0.4,1.8c0.4,2.8,0,5.3-1.1,7.7
			c-2.5,0.7-4.2,1.8-5.3,3.2c-1.1,0-1.4,0.4-1.4,1.1c-1.1,1.4-1.1,3.2-0.4,4.6c0,1.1-0.3,2.1-1.4,2.8c-3.2,0-5.6-1.8-7.4-4.9
			c-1.4-1.4-1.8-2.5-1.4-4.2c-3.2-4.6-5.6-8.8-7.4-13c-1.1-1.4-1.8-2.8-2.1-4.2c-0.3-0.4-0.7-1.1-0.7-1.8l0.4-0.4
			c-0.4-0.4-0.4-0.7-0.4-1.4c0.4-0.4,0.7-1.1,1.4-1.4h-0.4c0-0.4,0-0.7,0.4-1.4c-0.4-0.4-0.7-0.4-1.1-0.4c0.3,0,0.7,0,1.4,0.4
			c0-0.4,0-0.4-0.3-0.7c1.4,1.1,2.8,2.5,3.9,3.9c1.1-0.4,1.1-1.1,0.3-1.8c1.1,0,1.1-0.4,0-0.7v-0.7c1.1,0.4,1.4,0.4,1.4-0.4
			c0.4,0.4,1.1,0.4,1.4,0c0.4,0.4,0.7,0.4,1.1,0c1.1-0.3,1.8-0.7,1.4-1.8c0-0.4,0.4-0.7,0.7-1.1h0.3c0.4-0.7,0.4-1.1,0.7-2.1
			c-0.4-11.3-1.1-22.2-1.8-32.7c-0.7-6.7-0.7-13-0.4-19.7c-11.6,1.4-23.2,2.8-34.1,4.2c-9.2,1.8-18.3,1.8-26.7,0.7
			c-8.1,1.1-14.8-1.1-20.4-6.7c0.4-0.4,0.7-0.7,0.7-1.8l0.7-0.4c-0.4-0.3-0.7-1.1-0.4-1.8c0.4-0.4,0.7-0.7,1.1-1.8
			c0.3,0.4,0.7,0,1.4-0.3c-0.4-0.4,0-0.7,0.3-1.1c0.7-0.7,1.4-1.4,2.5-2.5c0.7-0.3,1.4-1.4,2.1-2.5c0.7,0.4,1.1,0.4,1.4-0.7
			c4.2-1.8,9.2-3.5,14.4-4.9c7.7-2.5,16.2-5.3,23.9-8.4c0.4-0.4,0.4-0.7,0.4-1.4v0.3c0.3-1.4,0.7-2.8,1.8-4.6h0.4
			c1.1-2.1,2.8-4.6,4.6-7.7c0.7-1.8,1.8-3.5,2.8-5.3h0.4c0.3-1.1,1.4-1.8,2.8-2.5c0.4,0,0.7-0.3,0.7-1.4c0.4,0.3,0.7,0.3,0.7-0.4
			c0,0.4,0,0.4,0.4,0.4c0-0.4,0-0.7,0.4-1.1c0.3,0.4,0.7,0.4,1.1,0V336c0,0.4,0.4,0.7,1.1,1.1c0-0.4,0.4-0.7,1.1-0.4
			c0.4,0.4,0.7,0.7,1.4,0.7V337h0.7v-0.4c0.4,0.7,1.1,1.4,1.8,2.1l0.4-0.4v-0.7c0,1.1,0.4,1.8,1.4,2.1c3.2-0.7,6-1.8,9.1-3.2
			c0.4-1.8,0-3.9-0.3-6c-5.3-1.1-10.2-2.1-15.1-3.2c-5.3,0-9.8,0-14.8,0c-0.4-0.3-1.1-1.1-1.4-2.1l-0.4-1.4h0.7v-1.4
			c0.4,0.7,0.7,0.7,1.4,0c-0.3,0-0.3,0-0.3-0.3c0,0.3,0.3,0.7,0.7,0.3v-1.1c0.4,0.7,0.7,1.1,1.4,0.7v-0.7h0.4
			c-0.4-0.3-0.4-0.7-0.4-1.4c0.4,0.7,0.7,1.1,1.8,1.4c0-0.3,0-1.1,0-1.8c-0.3,0-0.3,0,0-0.4c0,0.4,0.4,0.7,0.7,0.7v-0.7
			c0-0.3,0-0.7,0.4-1.4c-0.4-0.4-0.7-1.1-1.1-1.8c0,0.4,0.4,0.4,0.7,0.4c0.4,1.1,0.7,1.4,1.8,1.1h0.3c0-0.3,0-1.1-0.3-1.4
			c0.3,0.7,0.7,1.1,1.4,1.4v-0.3c2.5,1.1,4.9,1.1,8.1,0c3.9-1.4,8.1-3.2,12.7-5.3c0-4.2,0-9.5,0.4-14.8c-0.4,0.3-0.7,0.7-1.1,0.3
			v-0.3c-1.1,0.3-2.1,1.1-2.8,1.4c-3.9,1.1-6.7,1.4-9.9,1.8c-5.6,2.1-10.9,3.2-16.5,3.5c-5.3,1.4-10.2,2.1-15.5,2.5
			c-1.1,1.1-2.5,1.4-3.5,1.4c-2.1-0.4-3.9,0-5.3,0.3c-1.8,1.1-3.2,1.4-4.9,1.8v-0.4c-0.4,0-1.1,0-1.8,0v0.4c-1.8,0-3.5,0.3-4.9,1.1
			c-5.3,2.5-10.5,5.3-15.5,8.1c-2.1,1.8-4.9,3.5-7.4,4.9c-2.8,1.8-6,3.5-9.2,4.6c-2.1,1.1-3.9,2.1-5.6,3.2c-2.1,1.1-3.5,2.1-4.2,3.5
			c-1.1,1.8-2.5,2.8-3.9,3.9c-1.1,0.7-2.5,1.8-3.9,2.1c-4.9,1.1-8.1-0.4-9.5-3.9c-1.4-1.8-2.8-3.9-3.5-6.3c0-0.7,0-1.4,0.4-2.5
			c0-0.7,0-1.8,0-3.2c0.4-0.4,1.4-1.1,2.1-1.8c0.4-1.1,1.1-2.5,1.4-3.5c0.4-0.3,0.7-0.7,1.1-1.1H15c0.4-1.1,1.4-1.4,2.8-1.8
			c1.1-1.1,2.5-2.1,4.6-3.2c1.8-0.4,3.2-1.1,4.6-1.8c1.4,0.3,3.2,0.3,4.9,0.7c6.3-1.8,11.6-4.2,16.9-7.7c4.9-2.5,9.5-4.6,14.8-6.7
			c15.8-9.2,31.3-18.6,46.1-29.6c9.5-4.6,19.3-9.5,29.2-14.1c-0.3-1.8-0.3-3.9-0.7-6c-3.9,0-7.7,0-10.9,0
			c-8.1,1.4-15.8,1.8-24.6,0.7c-1.8-0.4-2.8-1.1-3.5-2.1c-0.4-1.1-0.7-1.8-1.1-2.8c0.7-0.4,1.4-0.7,2.1-1.8h-0.4
			c1.1-0.3,1.8-0.7,2.5-1.8c1.1,0.4,1.4,0,0.4-1.1c1.8,0,3.2-0.7,3.5-2.5c0.7-0.4,1.1-0.7,0.7-1.4c1.1,0.3,1.4,0,1.8-0.7
			c0.4,0.4,0.7,0.4,1.1-0.3c-2.5-2.8-4.6-5.6-6-8.8c-2.1-2.5-3.5-4.9-3.9-7.7c0-1.1-0.3-1.8-1.4-2.8c-0.4,0.3-0.7,0-1.1-1.1
			c-0.3-0.7,0-1.4,1.4-2.5c-0.7-0.3-0.7-1.1,0.4-1.8c0.4,0.4,0.7,0,0.7-0.3c0-0.4,0-0.7,0-1.1c0.7-1.1,1.8-1.8,3.2-2.1
			c0.7-0.7,1.4-1.8,2.5-2.5l0.4-0.4c-0.4,0-0.4,0-0.4-0.3c0,0.3,0,0.3,0.4,0.3c0.3-0.3,0.7-1.1,0.7-1.8h-1.4
			c0.4-0.3,0.4-0.7,0.4-1.1c-1.1,0.3-2.1,0.7-3.2,1.4c-1.8,1.1-3.2,1.8-4.9,2.5c-1.4,1.8-2.8,2.8-4.2,4.6c0,0.4,0,0.4,0.4,0v0.4
			c-1.1,0.7-2.1,1.4-3.2,1.8c-1.8,2.5-4.2,4.6-7,5.6c-1.8,1.8-3.5,3.2-5.3,4.6c0-0.4,0.4-0.4,0.7-0.7c-0.3,0-0.3,0-0.7,0
			c1.8-1.1,3.5-2.5,5.3-4.2c0-0.3,0-0.3,0-0.7c-1.1,0.3-1.8,0.7-2.8,1.4c-1.1,0-1.8,0-2.1,0c-1.8,0.7-3.2,1.1-4.2,1.1
			c-3.5,1.8-7,2.8-9.8,3.9c-1.8,0.4-3.2,0.7-4.9,1.1c-2.1,1.1-3.5,1.8-5.3,2.1c-3.5,1.1-6.3,2.1-8.4,3.9c-1.8,1.4-3.5,2.8-5.6,3.9
			c-0.7,1.1-1.4,1.4-2.5,1.1c0.4-0.7,0.4-1.4,0-2.1c-0.7-0.7-1.1-0.7-1.4,0.3c0-2.5,0.7-4.9,2.1-7c2.5-7.7,5.3-15.8,9.1-23.6
			c4.9-7.7,9.8-15.1,15.5-22.5c9.2-10.9,19.3-21.5,30.3-32c1.8-1.8,3.9-3.2,6.7-4.2c2.5,0,4.9-1.1,7-3.5c1.1,0,1.8-0.4,2.1-1.4
			c0.4,0.3,0.7,0.7,1.1,0.7c0.4-1.4,1.4-1.8,3.2-1.4c0.3,0.7,1.1,1.1,1.4,1.4c0.3-0.4,1.1,0,1.4,0.3c0.7-0.3,1.1-1.4,1.1-2.5
			c8.8,6.7,14.1,14.4,16.5,24.3c0,3.5,0.4,7.4,1.4,10.9c0.4,2.5,0.7,4.6,0.4,6c-0.4,0.4-0.7,0.4-1.1,0c-0.4,0.4-0.4,0.7-0.4,1.1
			c0,0.3-0.4,0.7-0.7,0.7h-0.4c-0.7,0.7-1.1,1.1-1.4,1.4h-0.4c-1.1,1.1-1.8,1.4-2.8,1.8c-0.7,1.1-1.8,2.1-3.5,2.8
			c-0.3,1.1-1.1,1.4-2.1,1.8v-0.3c-4.6,3.9-8.1,7.4-12,11.3c-1.4,0.7-1.8,1.4-1.4,2.1c0.7,0.4,1.4,0.7,2.1,1.1
			c0.4-0.7,1.1-1.1,1.8-0.7c-0.4-0.7,0.3-1.1,1.4-1.4c6.7,4.9,11.3,10.9,13,18.6c0.4,3.5,0.7,7.4,0.7,11.3c3.5-0.7,7.4-1.8,11.3-3.2
			c0.3-1.8,0.7-3.5,0.3-5.3c-0.3-1.4-0.7-2.8-1.4-4.2c-0.4-0.7-0.4-1.4,0-2.1c-0.4,0-0.4,0-0.4-0.4c0.4,0.4,0.7,0.7,1.1,0.4
			c0.4,0,0.7-0.4,0.4-0.7c0.3,0.3,0.3,0.3,0.7,0.3c0-0.3,0-1.1-0.4-1.4l0.4-0.4c-0.4,0-0.4,0-0.7-0.3c1.1,0,2.1,0.3,3.2,0.7
			c-1.1-1.1-1.4-1.8-1.4-2.8c0.4,0.4,1.1,1.1,2.1,1.4c0-0.4-0.4-0.7-0.7-1.1v-0.7c1.4,0.7,2.1,0.3,2.5-0.7c-0.4,0-0.7-0.4-0.4-1.1
			c0.4,0,0.4,0,0.7,0c0.4-0.4,0.4-0.4,0.7,0h0.4c0.4-0.4,0.4-1.1,0-1.4c1.1,0.7,1.8,0.7,2.8,0c-0.4,0-0.4,0-0.4,0
			c3.5,0.3,6.7,1.8,9.5,4.2h0.7v0.3c1.1,1.1,2.1,1.4,3.2,1.4c1.1,1.1,2.1,1.8,3.2,2.5c3.9-3.9,7.4-8.4,10.5-13.7
			c-3.5-1.1-7-2.5-10.2-4.2c-1.1-1.1-1.8-2.1-2.1-3.2c-3.5-0.7-5.3-2.1-6-4.6c-1.8-3.2-3.2-6.3-4.2-9.5c-2.1-2.8-2.8-6-1.8-9.8
			c2.1-6,4.9-11.6,8.4-17.2c9.5-10.2,19.4-19.7,29.5-29.2c0.7-1.1,1.8-1.8,3.5-2.5c0-0.7,0.3-1.1,1.4-0.7c0.4-0.4,0.7-0.7,1.8-1.1
			c0.4-0.3,1.1-0.3,1.4,0c1.8-0.3,2.8-0.7,3.5-2.5l0.4-0.3c0.4,1.1,0.7,1.1,1.1,0.7c1.1-0.4,1.8-1.4,1.8-2.8c0.3,1.1,0.7,1.1,1.1,0
			C206.1,116.5,207.1,117.2,208.5,117.5z M128.7,363.4c-0.3,0.7-1.1,1.1-1.8,0.7c-6.3,2.1-12.3,2.1-18.6,0c-1.1,0.4-2.1,0.7-2.8,0.7
			c-2.8,1.8-5.6,2.8-7.7,3.2c-7.4,3.2-14.4,6.3-22.2,9.1c1.8,2.5,4.2,3.5,7.4,3.5c18.6,0.4,37.6-1.4,57-5.3c0-3.2,0-6.7,0.4-9.5
			c-1.1,0-1.8-0.4-2.8-0.7C134.3,364.5,131.1,363.8,128.7,363.4z M170.5,334.9c1.1,1.1,2.5,1.8,3.2,2.1c1.8,1.1,3.5,2.1,4.9,3.2
			c3.2,1.8,5.6,4.2,6.7,7.4c-0.4,0.3-0.7,0.7-1.1,1.1c-0.4,0.4-0.4,0.7-0.4,1.1c0.4,1.1,0.7,1.8,1.1,2.1c0.4,0.7,0,1.1-0.3,1.4
			c1.1,0.7,1.8,1.4,2.8,2.1c-0.3,0.4-0.7,0.7-0.7,1.1c-0.4,1.1-1.4,1.8-2.5,1.8c0,0.4,0,0.7,0.4,0.7c-1.4,1.1-2.8,1.8-4.2,2.1
			c-3.9,1.4-7,2.1-9.5,2.5c-1.8,1.1-3.2,2.5-4.2,3.9c-0.4,0.7-0.7,0.7-1.1,0c-1.1,1.8-2.5,3.2-4.2,4.2c8.4-1.8,16.9-3.2,25.7-4.9
			c8.4-1.8,16.9-4.6,25.3-8.1c-1.8-1.4-3.5-2.8-4.9-4.6h0.4c-3.2-1.1-5.3-2.8-7-4.6c0-0.3,0.3-0.3,0.7-0.3c-5.3-3.2-10.9-6-16.5-9.2
			c-1.1,0-1.8-0.4-2.8-0.7h-0.4c-0.4,0-0.4,0-0.4-0.3h-0.4c-2.1-0.4-3.9-0.7-5.6-1.8h0.7C174.1,336.3,172.3,335.6,170.5,334.9z
			 M174.1,286c-1.1-0.4-2.5-0.4-3.5,0.7c1.1,0.7,1.8,0.7,2.8,0.3v0.4c0-0.7,1.1-1.4,2.8-1.8C175.1,285.3,174.4,285.7,174.1,286z
			 M170.5,332.8v0.3c3.5,1.4,7.4,2.8,11.3,4.2c2.5,1.8,5.3,2.8,8.1,3.9l-0.3,0.3c0.3,0.7,1.4,1.1,2.5,1.1c0.3,0.3,1.1,0.7,1.4,1.1
			c0.3,0,0.3,0,0.7,0.3c0.7,0.4,1.4,0.7,2.5,0.7c0.7,0.4,1.1,1.1,1.4,1.4v-0.4c0.4,0.4,0.7,0.4,1.4,0.7H199
			c4.6,3.2,9.8,6.3,15.5,9.2c-0.7-0.4-1.1-0.7-1.4-1.1c-6-4.2-12.3-8.4-19-12h-0.4C186.7,338.5,178.6,335.3,170.5,332.8z
			 M170.9,331.1c3.5,1.8,7.7,3.5,12,4.9C178.6,334.6,174.4,332.8,170.9,331.1z M172.3,330.4l-0.7,0.3c1.8,1.1,4.2,1.8,6.7,2.1
			c-0.4,0-0.4,0-0.4-0.3C175.5,331.8,173.7,331.1,172.3,330.4z M182.1,279c-0.4,0.3-0.4,0.7-0.4,1.1c-0.4,0-0.4-0.3-0.4-0.7
			c-1.1,0.7-2.5,1.1-3.5,1.1c-0.4,0-0.7,0-1.1,0c-1.8,0.3-2.8,0.7-3.5,0.7c3.5-0.4,7-0.7,10.9-1.8h-0.4
			C182.8,279.7,182.5,279.7,182.1,279z M177.2,331.1l-3.9-1.1l6,2.1L177.2,331.1z M174.1,329.3c1.8,1.1,3.9,1.4,6,1.8
			c1.4,1.1,3.2,1.8,5.3,2.5C182.1,331.8,178.3,330.4,174.1,329.3z M188.1,280.1l-0.4,0.4c-1.8,0-3.5,0-5.3,0.3
			c-1.8,0-3.2,0.4-4.6,0.7c-0.4,0-0.4,0-0.4-0.3c-1.1,0.3-2.1,0.3-3.2,0.7c1.1,0.4,1.8,0,2.5-0.3c1.8,0,3.2,0,4.2-0.3
			c1.1-0.4,1.8-0.4,2.1-0.7c1.8,0.3,3.9,0.3,5.6,0v-0.4l-0.3,0.4C188.1,280.4,188.1,280.4,188.1,280.1z M180.4,329.7h-1.1
			c2.1,0.3,4.2,1.1,6,2.1C183.6,331.1,181.8,330.4,180.4,329.7z M185.3,334.9l-5.3-1.8l7.7,2.8L185.3,334.9z M184.6,333.9
			c4.2,1.8,8.8,3.9,13.4,5.6C193.7,337.4,189.2,335.6,184.6,333.9z M187.1,333.5c3.2,1.8,6.7,3.2,10.5,4.2c-2.8-1.1-5.3-2.1-7.7-3.2
			C188.8,334.2,187.8,333.9,187.1,333.5z M189.5,332.8c2.5,1.4,4.6,2.5,6,2.8c1.4,0.4,2.1,0.7,2.5,0.4l-0.4,0.4
			c-0.7-0.4-1.4-0.4-2.1-0.7C193.4,334.6,191.3,333.9,189.5,332.8z M192.7,339.2c2.8,1.1,5.6,2.5,8.4,3.5c-1.8-0.7-3.5-1.4-4.6-2.5
			v-0.4l-0.7,0.4C194.8,339.9,193.7,339.2,192.7,339.2z M198.3,343.7c1.1,0.7,1.8,1.1,2.5,1.1c1.8,1.4,3.2,2.5,5.3,3.2
			c3.2,2.8,6.7,5.3,10.5,7c-4.6-2.8-9.2-6-13.7-9.2C201.8,345.1,200.1,344.4,198.3,343.7z M226.5,275.1c-1.1,0.4-1.8,0.7-2.8,0.4
			c-1.8,0.3-3.2,0.3-4.9,0c-3.9,0.3-7.7,0.3-10.9,0.7c7-0.4,12-0.4,15.8-0.4c3.5,0,5.3,0,5.6-0.3c0.4,0.3,0.7,0.3,1.1,0.3
			c0.7,0,1.1,0,1.4-0.3c-1.1-0.4-2.5-0.4-3.5,0C227.9,275.5,227.2,275.5,226.5,275.1z"/>
	</g>
	<g>
		<path fill="#231815" d="M411.7,340.9v2.1c0,2.4-0.6,4.8-1.7,7c-1.1,2.2-2.3,4.3-3.6,6.3c-0.9,2.4-2.4,6-4.4,10.8
			c-2.1,3.1-5.1,7.8-8.9,14.2c-5.8,11.6-11.6,25.2-17.4,40.8c-0.6,1.1-1.4,2.6-2.3,4.6c-3.7,7.2-8.8,17.9-15.3,32.1
			c-0.8,1.7-1.1,3.4-1.1,5.3c-4,1.5-7,6-9.2,13.5l-1.6,0.9l-2.5-5c0-1.2-0.8-3.2-2.3-5.8c-1.5-2.7-2.4-4.6-2.5-5.8
			c-2-9.3-5.3-23.1-10.1-41.2c-2-9.3-4.8-20.6-8.5-33.9h-0.5c-0.1,0.8-0.2,1.5-0.2,2.3c0.1,0.8,0.4,1.6,0.7,2.5
			c-1.4-5.3-3.7-13.4-7.1-24.3c-0.5-1.1-2.3-5-5.5-11.7c-2.1-4.1-3.4-8.4-3.7-12.8c-1.5-1.8-3-2.9-4.4-3.2v-1.4l0.2-0.5
			c0.1,0.3,0.6,0.7,1.4,1.1c0.5-0.9,1.2-2.2,2.3-3.9h0.9c0-0.3-0.1-0.6-0.2-0.9c0-0.1,0.9-1.1,2.7-3l0.5,1.4c0-0.5,0.1-0.8,0.2-1.1
			l1.1-1.4c0.3-0.1,0.5-0.3,0.7-0.5h-0.2c0.3-0.8,0.8-1.4,1.4-1.8v-0.5l0.7,0.2c0.3-0.3,0.8-0.8,1.6-1.4l2.5,1.8l0.2-0.9l0.5-0.7
			l0.5-0.2c1.2,0.3,4,0.9,8.2,1.8c0.3-0.1,1.1-0.5,2.5-1.1l7.6,2.3c-0.1,2.1,0.7,5.3,2.5,9.4c0.3,0.9,0.5,4.1,0.5,9.6
			c0,0.8-0.2,1.8-0.6,3.2c-0.4,1.4-0.6,2.4-0.6,3.2c0,0.3,0.1,0.8,0.3,1.5s0.3,1.3,0.3,1.7c-0.9,2-1.4,5-1.4,8.9
			c0,1.4,0.1,3.3,0.2,5.7c0.1,2.9,0.3,4.9,0.5,6c-0.1,9,0.3,22.5,1.4,40.5c0.5,3.5,2,10.6,4.6,21.3c0.8,4.3,2.3,10.5,4.6,18.8
			c1.8-5,4.7-12.9,8.7-23.6c1.1-3.4,2.3-8.5,3.7-15.3c1.4-6.9,2.6-11.8,3.7-14.9c6.6-20.5,9.8-36.7,9.8-48.8c0-3.2-1.2-9.2-3.7-17.9
			l0.2-1.1c-0.1-0.8-0.2-1.5-0.2-2.1c0-0.6,0.2-1.8,0.7-3.4c0-0.9,0.2-2.3,0.7-4.1c0.3-0.8,1.9-1.9,4.9-3.4s4.8-2.7,5.6-3.7
			c1.2,0.3,3.4,2.5,6.6,6.6c3.1,3.5,7.1,5.3,12.1,5.3c0.6,0,1.6-0.1,2.9-0.5c1.3-0.3,2.3-0.5,3.1-0.5c1.8,0,3.2,1.1,4.2,3.2
			C411.4,336.6,411.8,338.7,411.7,340.9z"/>
		<path fill="#231815" d="M551,389.9c-1.4,0.8-3,2.3-4.8,4.6c-2.7-1.2-4-1.8-3.9-1.8c-1.7,2.1-3.7,3.9-6.2,5.3
			c-1.2,1.2-3.1,2.6-5.7,4.1c-0.9,0.3-8.2,0.5-21.8,0.5c-2.1,0-7.6,0.5-16.3,1.4c-9.3,0.9-14.3,1.6-14.9,2.1c-1.7,1.4-2.7,3-3.2,4.8
			l-2.3-0.2c-1.1,7.6-3.4,18.9-6.9,33.7c6,0,14.9,0.3,26.9,0.9c12,0.6,21,0.9,26.9,0.9c6.6,0,12.7-3.2,18.3-9.6s8.5-12.9,8.5-19.5
			c0-5-1.4-9.4-4.1-13.1c1.5,0.5,3.4,1.2,5.5,2.3c0.6,1.1,1.5,2.7,2.5,5c0,1.7-0.1,4-0.5,7.1c-1.1,6-1.6,11-1.6,15.1l-0.2,0.5
			l0.2,0.9c0.1,0.6,0.5,1.1,1.1,1.6c-5,10.1-8.2,19.6-9.6,28.6c-2.1,1.8-4.3,3.7-6.4,5.7c-3.7,3.2-7.8,4.5-12.4,3.9
			c-12.1-1.5-20-2.2-23.8-2.1c-0.9,0-2.7-0.4-5.3-1.3c-2.6-0.8-4.7-1.3-6.2-1.3h-11.5c-6.1,0-10.5,0.7-13.1,2.1
			c-1.7,0.8-3.4,2.4-5,4.8c-1.7,2.4-3.6,4.3-5.7,5.5l-2.1-1.1c-2.7-4.4-4.1-10.5-4.1-18.1c-0.9-0.6-1.5-1.8-1.6-3.4
			c-0.8-1.1-1.1-2.1-1.1-3c0-1.5,0.3-3.7,1-6.6c0.7-2.9,1-5,1-6.4c1.1-2.9,3.9-5.7,8.5-8.5l9.6-78.6c-1.1-0.9-2.1-2.6-3-5
			c-0.9-2.4-1.8-4-2.7-4.8l-0.2-3c0-3.1,1-6.4,2.9-10c1.9-3.6,4.3-5.4,7.2-5.4c2,0,4,2.1,6.2,6.4c0.1-0.6,0.2-1.1,0.2-1.6
			c0-0.6-0.3-1.6-0.8-2.9c-0.5-1.3-0.8-2.3-0.8-2.9c0.3-0.9,1.6-2.1,4-3.4c2.4-1.4,4.1-2.1,5.2-2.1c0.5,0,2.1,0.4,4.8,1.1
			c15.4-2,27.2-3,35.3-3c7.3,0,12.3,0.3,14.9,0.9c5.5,1.2,9.4,4,11.7,8.5c-2.1,4.4-4.4,7.5-6.6,9.2c-1.1,0.9-3.1,2.1-6.2,3.4
			c-3.1,1.4-5.1,2.1-6.2,2.1c-1.5,0-3.7-0.1-6.5-0.5c-2.8-0.3-4.9-0.5-6.3-0.5c-3.5,0-8.6,0.6-15.3,1.7c-6.7,1.1-11.8,1.7-15.1,1.7
			c-4.1,6.9-6.2,17-6.2,30.5c0,0.6,0.1,1.2,0.5,1.8l0.7-0.2c0.3-0.5,0.7-0.8,1.1-1.1l0.9,0.5c-0.3,1.2-0.6,3.1-0.9,5.7
			c21.4-2.6,37-3.9,46.7-3.9c2.9,0,7.2,1.2,12.8,3.7C544,385.7,548,387.8,551,389.9z"/>
		<path fill="#231815" d="M691.3,477.2c-1.1,1.2-2.5,3.4-4.4,6.4c-13.1-2.6-38.1-18.9-74.9-48.8c-1.2,0-2.4,0.4-3.7,1.1
			c-1.2,1.7-2.4,5.7-3.4,12.1c-0.9,5.6-1.4,10-1.4,13.1c0,6.4,1.5,11.6,4.4,15.6c1.2-1.1,2.9-3.4,5-6.9h1.6v0.7
			c0.1,2-0.8,3.9-2.7,5.8c-2,1.9-4,2.9-6.2,2.9c-2.3,0-4.6-2.1-6.9-6.2c-2.9-5.5-4.4-8.3-4.6-8.5l-0.9,0.7c0.6,5.2,2.8,9.7,6.6,13.5
			c-9.5-9.6-14.2-26.6-14.2-51.1c0-12.7,2.2-25.3,6.6-38c4-11.5,7.9-23,11.9-34.6c1.5-1.2,3-3,4.4-5.3c2.1-3.5,3.4-5.5,3.7-6
			c1.4-1.8,5.1-5.8,11.2-11.9c6.1-6.1,9.8-9.5,11-10.1l0.2-1.6l0.5,0.2c2.4,0,3.8-0.1,4.1-0.2l0.7,0.7c0.1,0.6,0.3,1.1,0.5,1.6
			c0.9-1.5,2.1-2.2,3.4-2.1h0.7l1.1,0.9c1.2,0.6,3.4,0.9,6.6,0.9c2,0,4.9-0.6,8.8-1.8s6.9-1.8,9-1.8c5.8,0,8.6,2.3,8.2,6.9v0.9
			c-3.1,1.7-4.8,3.1-5.3,4.1c-0.6,2-1.6,5-3,9.2c-0.3,0.8-1.7,3.2-4.1,7.3c-1.8,2.9-2.7,5.5-2.7,7.8c0,1.8,0.1,4.6,0.5,8.2
			s0.5,6.4,0.5,8.2c0,10.8,0.1,17.1,0.5,18.8c2.6,14.7,7.7,33.3,15.3,55.9c0.6,2.3,2.7,7.4,6.2,15.3
			C688.8,467.2,690.5,472.4,691.3,477.2z M673.9,464.8c-4.1-10.4-10.2-26-18.1-46.7c-9.2,2.7-23.2,5.2-42.1,7.3
			c2.1,7,10.8,15,26.1,23.8C652.3,456.5,663.6,461.7,673.9,464.8z M649.6,401.1c-1.2-6.3-3.4-14.7-6.6-25.2c-0.9,0-2.2,0.3-3.8,0.9
			c-1.6,0.6-2.9,0.9-3.8,0.9h-0.7c-0.6-0.6-1.5-1.6-2.7-3c-2.1,0.8-4.3,3.9-6.4,9.4c0.6,0.8,0.9,1.5,0.9,2.3c0,0.6-0.2,1.3-0.7,2.1
			l-0.2-1.4c-3.2,3.2-5.3,7.5-6.4,12.8l0.7,0.2h2.7l0.9,0.5c10.8-0.8,15.5-1.1,14-1.1c1.1,0,2.7,0.3,5,0.9c2.3,0.6,4,0.8,5.3,0.7
			H649.6z"/>
		<path fill="#231815" d="M834.1,331.3c-4.1,4.6-8.4,7.6-12.8,9.2c-2.4,0.9-6.5,1.6-12.3,2.2c-5.7,0.5-10.5,1.4-14.3,2.6
			c-0.3,0.5-1.6,4.7-3.9,12.6c-6.6,22.9-10.5,41.7-11.9,56.3c0,0.8-0.5,13.9-1.4,39.4c-0.6,4.7-1.4,11.9-2.3,21.5
			c-1.1,0.5-2.7,1.5-5,3.2c-0.6-1.1-1.8-2.5-3.7-4.4v-0.5c-0.3,0-0.3-0.4,0-1.1l-0.7-0.9c0.3-0.6,0.5-3.4,0.5-8.5
			c0-2.4-0.4-6-1.1-10.8c-0.8-4.7-1.1-8.2-1.1-10.5c0-3.1,0.3-6.1,0.9-9.2c-0.3-0.9-0.6-1.9-0.9-3c0-11,1.8-30.8,5.3-59.5
			c1.2-10.7,1.8-16.3,1.8-16.9c0-0.5-0.6-2.4-1.8-5.7c-1.1-0.3-2.1-0.5-3.2-0.5c-2.9,0-5.6,1.2-8.1,3.7s-4.8,4.8-7,7.1
			c-1.4,1.4-5.3,3.9-11.9,7.7c-6.6,3.7-10.5,5.6-11.7,5.6c-2,0-3.7-0.8-5-2.5c-1.4-1.7-2.1-3.5-2.1-5.5c0-4.1,0.9-8.7,2.6-13.7
			c1.8-5,2.6-8.6,2.6-10.5c0-1.2-0.1-2.9-0.5-5.2s-0.5-3.9-0.5-5.2c0-1.7,1.7-3.1,5-4.4c2.7-0.9,5.3-1.4,7.6-1.4
			c1.4,0,3.1,0.7,5.2,1.9c2.1,1.3,4.1,1.9,6.1,1.9c4,0,10.2-0.5,18.6-1.4c8.4-0.9,14.7-1.4,19-1.4
			C805,323.7,821.1,326.2,834.1,331.3z"/>
	</g>
</g>
</svg>
